<svg width="62" height="62" fill="none" xmlns="http://www.w3.org/2000/svg"><g clip-path="url(#clip0_0_651)"><path d="M31 0l7.485 9.356v24.576h5.614V13.099C44.099 5.864 38.234 0 31 0z" fill="url(#paint0_linear_0_651)"/><path d="M31 0c-7.234 0-13.098 5.864-13.098 13.099V25.51c0 .517.418.936.935.936h5.614a.936.936 0 00.936-.936v-1.87a.936.936 0 00-.936-.936h-.88c-1.04 0-1.922-.823-1.927-1.862-.002-.52.208-.992.548-1.332l2.92-2.92a.935.935 0 00.275-.662V13.19c0-3.079 2.44-5.654 5.517-5.705a5.614 5.614 0 015.71 5.613v20.833h3.742V13.099C40.356 5.864 36.167 0 31 0z" fill="url(#paint1_linear_0_651)"/><path d="M17.278 52.644h27.445v7.485H17.278v-7.485z" fill="#77839D"/><path d="M17.278 52.644h27.445v7.485H17.278v-7.485z" fill="url(#paint2_linear_0_651)"/><path d="M47.841 30.19H44.1V62h3.742a3.742 3.742 0 003.743-3.742V33.932a3.742 3.742 0 00-3.743-3.743z" fill="url(#paint3_linear_0_651)"/><path d="M47.841 58.258V33.932a3.742 3.742 0 00-3.742-3.743h-29.94a3.742 3.742 0 00-3.742 3.743v24.326A3.742 3.742 0 0014.159 62h5.113a.935.935 0 00.779-.417l3.464-5.197h14.97l3.465 5.197c.173.26.465.417.778.417h1.37a3.742 3.742 0 003.743-3.742z" fill="url(#paint4_linear_0_651)"/><path d="M29.129 44.725v3.24a1.871 1.871 0 003.742 0v-3.24H29.13z" fill="#626A7C"/><path d="M29.129 44.725v3.24a1.871 1.871 0 003.742 0v-3.24H29.13z" fill="url(#paint5_linear_0_651)"/><path d="M31 36.739a3.742 3.742 0 00-3.24 5.613l1.369 2.373c.831 1.44 2.91 1.44 3.742 0l1.37-2.373A3.742 3.742 0 0031 36.738z" fill="url(#paint6_linear_0_651)"/></g><defs><linearGradient id="paint0_linear_0_651" x1="33.825" y1="0" x2="44.099" y2="0" gradientUnits="userSpaceOnUse"><stop stop-color="#E1D8FF"/><stop offset="1" stop-color="#F4ECFF"/></linearGradient><linearGradient id="paint1_linear_0_651" x1="22.745" y1="0" x2="40.356" y2="0" gradientUnits="userSpaceOnUse"><stop stop-color="#E1D8FF"/><stop offset="1" stop-color="#F4ECFF"/></linearGradient><linearGradient id="paint2_linear_0_651" x1="19.565" y1="54.515" x2="45.751" y2="58.28" gradientUnits="userSpaceOnUse"><stop stop-color="#4614E8"/><stop offset="1" stop-color="#BCA7FF"/></linearGradient><linearGradient id="paint3_linear_0_651" x1="45.713" y1="30.189" x2="51.584" y2="30.189" gradientUnits="userSpaceOnUse"><stop stop-color="#E1D8FF"/><stop offset="1" stop-color="#F4ECFF"/></linearGradient><linearGradient id="paint4_linear_0_651" x1="29.129" y1="62" x2="29.129" y2="30.189" gradientUnits="userSpaceOnUse"><stop stop-color="#BBA6FF"/><stop offset="1" stop-color="#E3D7FA"/></linearGradient><linearGradient id="paint5_linear_0_651" x1="29.441" y1="46.003" x2="33.082" y2="46.107" gradientUnits="userSpaceOnUse"><stop stop-color="#4614E8"/><stop offset="1" stop-color="#BCA7FF"/></linearGradient><linearGradient id="paint6_linear_0_651" x1="28.732" y1="37.502" x2="36.292" y2="38.99" gradientUnits="userSpaceOnUse"><stop stop-color="#4614E8"/><stop offset="1" stop-color="#BCA7FF"/></linearGradient><clipPath id="clip0_0_651"><path fill="#fff" d="M0 0h62v62H0z"/></clipPath></defs></svg>