<svg width="58" height="58" fill="none" xmlns="http://www.w3.org/2000/svg"><g clip-path="url(#clip0_0_597)"><path d="M38.557 18.593a19.08 19.08 0 0119.44 18.763 19.236 19.236 0 01-.446 4.52c-.542 2.458-.865 4.959-.865 7.476v4.865a1.35 1.35 0 01-1.35 1.35h-4.864c-2.517 0-5.019.322-7.476.864a19.25 19.25 0 01-4.52.446 19.08 19.08 0 01-18.763-19.439c.157-10.337 8.507-18.687 18.844-18.845z" fill="url(#paint0_linear_0_597)" fill-opacity=".5"/><path d="M21.212 37.46h0l36.339 4.416-1.465-.323s0 0 0 0c-.561 2.544-.9 5.155-.9 7.799v4.715h-4.714c-2.645 0-5.256.338-7.8.9a17.733 17.733 0 01-4.167.41 17.58 17.58 0 01-17.293-17.916z" stroke="#CDBBEF" stroke-opacity=".2" stroke-width="3"/><path d="M23.687 1.122A23.245 23.245 0 00.004 23.982a23.43 23.43 0 00.543 5.505c.66 2.994 1.053 6.042 1.053 9.108v5.927c0 .908.736 1.644 1.645 1.644h5.927c3.066 0 6.113.393 9.107 1.053 1.769.39 3.613.58 5.506.543a23.245 23.245 0 0022.86-23.682C46.451 11.487 36.28 1.315 23.686 1.122z" fill="url(#paint1_linear_0_597)"/><path d="M12.346 29.278a3.613 3.613 0 100-7.225 3.613 3.613 0 000 7.225z" fill="#fff"/><path d="M12.346 29.278a3.613 3.613 0 100-7.225 3.613 3.613 0 000 7.225z" fill="url(#paint2_linear_0_597)"/><path d="M22.563 29.278a3.613 3.613 0 100-7.225 3.613 3.613 0 000 7.225z" fill="#fff"/><path d="M22.563 29.278a3.613 3.613 0 100-7.225 3.613 3.613 0 000 7.225z" fill="url(#paint3_linear_0_597)"/><path d="M32.78 29.278a3.613 3.613 0 100-7.225 3.613 3.613 0 000 7.225z" fill="#fff"/><path d="M32.78 29.278a3.613 3.613 0 100-7.225 3.613 3.613 0 000 7.225z" fill="url(#paint4_linear_0_597)"/></g><defs><linearGradient id="paint0_linear_0_597" x1="27.969" y1="18.591" x2="58" y2="18.591" gradientUnits="userSpaceOnUse"><stop stop-color="#E1D8FF"/><stop offset="1" stop-color="#F4ECFF"/></linearGradient><linearGradient id="paint1_linear_0_597" x1="10.061" y1="1.12" x2="46.647" y2="1.12" gradientUnits="userSpaceOnUse"><stop stop-color="#E1D8FF"/><stop offset="1" stop-color="#F4ECFF"/></linearGradient><linearGradient id="paint2_linear_0_597" x1="12.346" y1="22.053" x2="12.346" y2="29.278" gradientUnits="userSpaceOnUse"><stop stop-color="#4614E8"/><stop offset="1" stop-color="#BCA7FF"/></linearGradient><linearGradient id="paint3_linear_0_597" x1="22.563" y1="22.053" x2="22.563" y2="29.278" gradientUnits="userSpaceOnUse"><stop stop-color="#4614E8"/><stop offset="1" stop-color="#BCA7FF"/></linearGradient><linearGradient id="paint4_linear_0_597" x1="32.78" y1="22.053" x2="32.78" y2="29.278" gradientUnits="userSpaceOnUse"><stop stop-color="#4614E8"/><stop offset="1" stop-color="#BCA7FF"/></linearGradient><clipPath id="clip0_0_597"><path fill="#fff" d="M0 0h58v58H0z"/></clipPath></defs></svg>