<svg width="75" height="58" fill="none" xmlns="http://www.w3.org/2000/svg"><ellipse opacity=".7" cx="28.427" cy="29" rx="28.427" ry="29" fill="url(#paint0_linear_0_605)"/><path d="M50.516 29c0 12.49-9.917 22.564-22.088 22.564-12.172 0-22.09-10.074-22.09-22.564s9.918-22.564 22.09-22.564c12.17 0 22.088 10.074 22.088 22.564z" stroke="#CDBBEF" stroke-opacity=".3" stroke-width="3"/><ellipse opacity=".7" cx="46.573" cy="29" rx="28.427" ry="29" fill="url(#paint1_linear_0_605)"/><path d="M69.266 29c0 12.49-9.917 22.564-22.089 22.564C35.008 51.564 25.09 41.49 25.09 29S35.006 6.436 47.178 6.436c12.17 0 22.088 10.074 22.088 22.564z" stroke="#CDBBEF" stroke-width="3"/><path d="M46.065 40.54v-2.96c-2.981-.316-5.594-1.293-7.84-2.932l2.614-3.94c1.858 1.324 3.658 2.133 5.4 2.43v-3.555c-2.439-.572-4.23-1.342-5.371-2.31-1.123-.967-1.684-2.35-1.684-4.146 0-1.777.61-3.219 1.829-4.324 1.22-1.126 2.922-1.767 5.11-1.925V15.19h3.019v1.776a13.307 13.307 0 016.126 2.31l-2.38 3.97c-1.143-.83-2.44-1.422-3.891-1.778v3.436c2.4.573 4.151 1.352 5.255 2.34 1.122.987 1.683 2.379 1.683 4.176 0 1.777-.619 3.208-1.858 4.294-1.219 1.086-2.883 1.728-4.993 1.925v2.903h-3.02zm2.903-7.226c1.296-.138 1.945-.661 1.945-1.57 0-.414-.145-.74-.436-.977-.27-.257-.774-.494-1.51-.71v3.257zm-2.7-8.915v-3.198c-1.316.118-1.974.632-1.974 1.54 0 .395.135.72.406.977.29.237.813.464 1.568.681z" fill="url(#paint2_linear_0_605)"/><defs><linearGradient id="paint0_linear_0_605" x1="12.263" y1="0" x2="56.855" y2="0" gradientUnits="userSpaceOnUse"><stop stop-color="#E1D8FF"/><stop offset="1" stop-color="#F4ECFF"/></linearGradient><linearGradient id="paint1_linear_0_605" x1="30.408" y1="0" x2="75" y2="0" gradientUnits="userSpaceOnUse"><stop stop-color="#E1D8FF"/><stop offset="1" stop-color="#F4ECFF"/></linearGradient><linearGradient id="paint2_linear_0_605" x1="47.081" y1="15.188" x2="47.081" y2="40.541" gradientUnits="userSpaceOnUse"><stop stop-color="#4614E8"/><stop offset="1" stop-color="#BCA7FF"/></linearGradient></defs></svg>