<svg width="41" height="58" fill="none" xmlns="http://www.w3.org/2000/svg"><rect width="41" height="58" rx="5" fill="url(#paint0_linear_0_630)"/><path transform="matrix(-1 0 0 1 36.967 12)" stroke="url(#paint1_linear_0_630)" stroke-width="3" stroke-linecap="round" d="M1.5-1.5h27.918"/><path transform="matrix(-1 0 0 1 36.967 18)" stroke="url(#paint2_linear_0_630)" stroke-width="3" stroke-linecap="round" d="M1.5-1.5h27.918"/><path transform="matrix(-1 0 0 1 36.967 24)" stroke="url(#paint3_linear_0_630)" stroke-width="3" stroke-linecap="round" d="M1.5-1.5h27.918"/><path transform="matrix(-1 0 0 1 36.967 30)" stroke="url(#paint4_linear_0_630)" stroke-width="3" stroke-linecap="round" d="M1.5-1.5h27.918"/><path stroke="url(#paint5_linear_0_630)" stroke-width="3" stroke-linecap="round" d="M16.648 46.833H7.549"/><defs><linearGradient id="paint0_linear_0_630" x1="8.843" y1="0" x2="41" y2="0" gradientUnits="userSpaceOnUse"><stop stop-color="#E1D8FF"/><stop offset="1" stop-color="#F4ECFF"/></linearGradient><linearGradient id="paint1_linear_0_630" x1="2.689" y1="0" x2="27.221" y2="0" gradientUnits="userSpaceOnUse"><stop stop-color="#BBA6FF"/><stop offset="1" stop-color="#CDBBEF"/></linearGradient><linearGradient id="paint2_linear_0_630" x1="2.689" y1="0" x2="27.221" y2="0" gradientUnits="userSpaceOnUse"><stop stop-color="#BBA6FF"/><stop offset="1" stop-color="#CDBBEF"/></linearGradient><linearGradient id="paint3_linear_0_630" x1="2.689" y1="0" x2="27.221" y2="0" gradientUnits="userSpaceOnUse"><stop stop-color="#BBA6FF"/><stop offset="1" stop-color="#CDBBEF"/></linearGradient><linearGradient id="paint4_linear_0_630" x1="2.689" y1="0" x2="27.221" y2="0" gradientUnits="userSpaceOnUse"><stop stop-color="#BBA6FF"/><stop offset="1" stop-color="#CDBBEF"/></linearGradient><linearGradient id="paint5_linear_0_630" x1="17.096" y1="45.333" x2="7.496" y2="45.333" gradientUnits="userSpaceOnUse"><stop stop-color="#BBA6FF"/><stop offset="1" stop-color="#CDBBEF"/></linearGradient></defs></svg>