<svg width="44" height="62" fill="none" xmlns="http://www.w3.org/2000/svg"><rect width="38.383" height="54.597" rx="5" fill="url(#paint0_linear_0_618)" fill-opacity=".5"/><path d="M38.968 62H8.777c-2.775 0-5.032-2.262-5.032-5.042V9.67c0-2.781 2.257-5.043 5.032-5.043h30.191C41.743 4.627 44 6.889 44 9.67v47.288C44 59.738 41.743 62 38.968 62z" fill="url(#paint1_linear_0_618)"/><path d="M35.613 11.35H12.131c-.927 0-1.677.752-1.677 1.681v13.447c0 .93.75 1.68 1.677 1.68h23.482c.928 0 1.678-.75 1.678-1.68V13.031c0-.929-.75-1.68-1.678-1.68zM15.486 31.52H12.13c-.927 0-1.677.752-1.677 1.681 0 .93.75 1.681 1.677 1.681h3.355c.927 0 1.677-.752 1.677-1.68 0-.93-.75-1.681-1.677-1.681zm0 6.724H12.13c-.927 0-1.677.752-1.677 1.68 0 .93.75 1.682 1.677 1.682h3.355c.927 0 1.677-.752 1.677-1.681 0-.93-.75-1.681-1.677-1.681zm6.709 3.362h3.355c.927 0 1.677-.752 1.677-1.681 0-.93-.75-1.681-1.677-1.681h-3.355c-.927 0-1.677.752-1.677 1.68 0 .93.75 1.682 1.677 1.682zm13.418-3.362H32.26c-.927 0-1.678.752-1.678 1.68 0 .93.75 1.682 1.678 1.682h3.354c.928 0 1.678-.752 1.678-1.681 0-.93-.75-1.681-1.678-1.681zm0 6.723H32.26c-.927 0-1.678.752-1.678 1.681 0 .93.75 1.681 1.678 1.681h3.354c.928 0 1.678-.752 1.678-1.68 0-.93-.75-1.682-1.678-1.682zM22.195 48.33h3.355c.927 0 1.677-.752 1.677-1.68 0-.93-.75-1.682-1.677-1.682h-3.355c-.927 0-1.677.752-1.677 1.681 0 .93.75 1.681 1.677 1.681zm-6.71-3.362h-3.354c-.927 0-1.677.752-1.677 1.681 0 .93.75 1.681 1.677 1.681h3.355c.927 0 1.677-.752 1.677-1.68 0-.93-.75-1.682-1.677-1.682zm0 6.724h-3.354c-.927 0-1.677.752-1.677 1.68 0 .93.75 1.681 1.677 1.681h3.355c.927 0 1.677-.751 1.677-1.68 0-.93-.75-1.681-1.677-1.681zm20.128 0H22.195c-.927 0-1.677.752-1.677 1.68 0 .93.75 1.681 1.677 1.681h13.418c.928 0 1.678-.751 1.678-1.68 0-.93-.75-1.681-1.678-1.681zm-13.418-16.81h3.355c.927 0 1.677-.752 1.677-1.68 0-.93-.75-1.681-1.677-1.681h-3.355c-.927 0-1.677.751-1.677 1.68 0 .93.75 1.681 1.677 1.681zm13.418-3.361H32.26c-.927 0-1.678.751-1.678 1.68 0 .93.75 1.681 1.678 1.681h3.354c.928 0 1.678-.752 1.678-1.68 0-.93-.75-1.681-1.678-1.681z" fill="url(#paint2_linear_0_618)"/><rect x="20.596" y="51.821" width="16.851" height="3.701" rx="1.851" fill="url(#paint3_linear_0_618)"/><defs><linearGradient id="paint0_linear_0_618" x1="8.279" y1="0" x2="38.383" y2="0" gradientUnits="userSpaceOnUse"><stop stop-color="#E1D8FF"/><stop offset="1" stop-color="#F4ECFF"/></linearGradient><linearGradient id="paint1_linear_0_618" x1="12.427" y1="4.627" x2="44" y2="4.627" gradientUnits="userSpaceOnUse"><stop stop-color="#E1D8FF"/><stop offset="1" stop-color="#F4ECFF"/></linearGradient><linearGradient id="paint2_linear_0_618" x1="23.872" y1="55.053" x2="23.872" y2="11.35" gradientUnits="userSpaceOnUse"><stop stop-color="#BBA6FF"/><stop offset="1" stop-color="#E3D7FA"/></linearGradient><linearGradient id="paint3_linear_0_618" x1="22" y1="52.746" x2="37.904" y2="55.585" gradientUnits="userSpaceOnUse"><stop stop-color="#4614E8"/><stop offset="1" stop-color="#BCA7FF"/></linearGradient></defs></svg>