<svg width="55" height="55" fill="none" xmlns="http://www.w3.org/2000/svg"><g clip-path="url(#clip0_0_1164)"><path d="M50.465 29.642c0 13.867-11.24 25.108-25.107 25.108C11.49 54.75.25 43.509.25 29.642c0-13.866 11.241-25.107 25.108-25.107 13.866 0 25.107 11.24 25.107 25.107z" stroke="#000" stroke-width=".5"/><path d="M43.495 29.642c0 10.017-8.12 18.137-18.137 18.137-10.017 0-18.138-8.12-18.138-18.137 0-10.017 8.12-18.137 18.138-18.137 10.017 0 18.137 8.12 18.137 18.137z" stroke="#000" stroke-width=".5"/><path d="M36.525 29.642c0 6.168-5 11.167-11.167 11.167-6.168 0-11.167-5-11.167-11.166 0-6.168 5-11.167 11.167-11.167s11.167 5 11.167 11.166z" stroke="#000" stroke-width=".5"/><path d="M25.358 34.089a4.447 4.447 0 100-8.893 4.447 4.447 0 000 8.893z" fill="url(#paint0_linear_0_1164)"/><path d="M48.865.116l-5.563 5.563a1.177 1.177 0 00-.342.906l.322 5.133 6.554-6.554L49.535.37a.393.393 0 00-.67-.253z" fill="url(#paint1_linear_0_1164)"/><path d="M54.885 6.135l-5.563 5.563a1.18 1.18 0 01-.907.342l-5.133-.322 6.554-6.554 4.796.301c.337.021.492.43.253.67z" fill="url(#paint2_linear_0_1164)"/><path d="M25.358 30.222a.58.58 0 01-.41-.99l27.71-27.71a.58.58 0 01.82.82l-27.71 27.71a.577.577 0 01-.41.17z" stroke="#000" stroke-width=".5"/></g><defs><linearGradient id="paint0_linear_0_1164" x1="25.358" y1="25.196" x2="25.358" y2="34.089" gradientUnits="userSpaceOnUse"><stop stop-color="#4614E8"/><stop offset="1" stop-color="#BCA7FF"/></linearGradient><linearGradient id="paint1_linear_0_1164" x1="46.397" y1="0" x2="46.397" y2="11.718" gradientUnits="userSpaceOnUse"><stop stop-color="#4614E8"/><stop offset="1" stop-color="#BCA7FF"/></linearGradient><linearGradient id="paint2_linear_0_1164" x1="49.141" y1="5.164" x2="49.141" y2="12.043" gradientUnits="userSpaceOnUse"><stop stop-color="#4614E8"/><stop offset="1" stop-color="#BCA7FF"/></linearGradient><clipPath id="clip0_0_1164"><path fill="#fff" d="M0 0h55v55H0z"/></clipPath></defs></svg>