<svg width="53" height="40" fill="none" xmlns="http://www.w3.org/2000/svg"><path d="M39.977 20c0 10.934-8.903 19.8-19.888 19.8C9.104 39.8.2 30.934.2 20 .2 9.066 9.104.2 20.089.2S39.978 9.066 39.978 20z" fill="#F4F7FA" stroke="#000" stroke-width=".4"/><path d="M36.558 20c0 9.054-7.372 16.396-16.47 16.396C10.993 36.396 3.62 29.054 3.62 20c0-9.054 7.373-16.396 16.47-16.396 9.097 0 16.47 7.342 16.47 16.396z" stroke="#000" stroke-opacity=".3" stroke-width=".4"/><path d="M52.8 20c0 10.934-8.904 19.8-19.889 19.8S13.022 30.934 13.022 20C13.022 9.066 21.926.2 32.911.2S52.8 9.066 52.8 20z" fill="#F4F7FA" stroke="#000" stroke-width=".4"/><path d="M49.808 20c0 9.054-7.372 16.396-16.469 16.396-9.097 0-16.47-7.342-16.47-16.396 0-9.054 7.373-16.396 16.47-16.396 9.097 0 16.47 7.342 16.47 16.396z" stroke="#000" stroke-width=".4"/><path d="M32.648 29.471v-2.218c-1.946-.248-3.674-.944-5.182-2.086l1.713-2.503c1.26.952 2.452 1.545 3.58 1.779v-3.491c-1.64-.44-2.84-1.01-3.602-1.713-.746-.717-1.12-1.713-1.12-2.986 0-1.2.418-2.181 1.252-2.943.834-.76 1.954-1.215 3.36-1.361v-1.274h2.283v1.318a9.176 9.176 0 014.084 1.625l-1.471 2.569c-.937-.63-1.845-1.062-2.723-1.296v3.316c1.684.454 2.899 1.054 3.645 1.8.747.732 1.12 1.72 1.12 2.965 0 1.2-.425 2.18-1.274 2.942-.834.761-1.961 1.222-3.381 1.383v2.174h-2.284zm.11-11.813v-2.964c-1.01.131-1.515.6-1.515 1.405 0 .351.103.651.308.9.22.234.622.454 1.207.659zm2.064 6.895c1.04-.161 1.56-.645 1.56-1.45 0-.38-.118-.688-.352-.922-.22-.249-.622-.483-1.208-.703v3.075z" fill="url(#paint0_linear_0_495)"/><defs><linearGradient id="paint0_linear_0_495" x1="33.339" y1="15.319" x2="33.339" y2="24.681" gradientUnits="userSpaceOnUse"><stop stop-color="#4614E8"/><stop offset="1" stop-color="#BCA7FF"/></linearGradient></defs></svg>