<svg width="40" height="40" fill="none" xmlns="http://www.w3.org/2000/svg"><path d="M18.379 9.219c0 4.979-4.068 9.018-9.09 9.018C4.268 18.237.2 14.197.2 9.22.2 4.239 4.268.2 9.29.2c5.02 0 9.089 4.04 9.089 9.019zm0 21.563c0 4.979-4.068 9.018-9.09 9.018C4.268 39.8.2 35.76.2 30.782c0-4.98 4.068-9.02 9.09-9.02 5.02 0 9.089 4.04 9.089 9.02zM39.8 9.219c0 4.979-4.068 9.018-9.09 9.018-5.02 0-9.089-4.04-9.089-9.018 0-4.98 4.068-9.019 9.09-9.019C35.732.2 39.8 4.24 39.8 9.219z" fill="#F1F5F8" stroke="#000" stroke-width=".4"/><ellipse cx="30.711" cy="30.782" rx="9.289" ry="9.219" fill="url(#paint0_linear_0_501)"/><path fill-rule="evenodd" clip-rule="evenodd" d="M9.266 2.638c-3.632 0-6.596 2.925-6.596 6.557 0 3.633 2.964 6.558 6.596 6.558v-3c-1.997 0-3.596-1.604-3.596-3.558 0-1.954 1.599-3.557 3.596-3.557v-3z" fill="#F1F5F8"/><path d="M9.266 2.638h.2v-.2h-.2v.2zm0 13.115v.2h.2v-.2h-.2zm0-3h.2v-.2h-.2v.2zm0-7.115v.2h.2v-.2h-.2zm0-2.8v-.4.4zM2.87 9.195c0-3.52 2.873-6.357 6.396-6.357v-.4c-3.741 0-6.796 3.013-6.796 6.757h.4zm6.396 6.358c-3.523 0-6.396-2.837-6.396-6.358h-.4c0 3.745 3.055 6.758 6.796 6.758v-.4zm0 0v.4-.4zm.2.2v-3h-.4v3h.4zm-.2-2.8v-.4.4zM5.47 9.195c0 2.066 1.69 3.758 3.796 3.758v-.4c-1.888 0-3.396-1.516-3.396-3.358h-.4zm3.796-3.757C7.16 5.438 5.47 7.13 5.47 9.195h.4c0-1.842 1.508-3.357 3.396-3.357v-.4zm0 0v.4-.4zm.2.2v-3h-.4v3h.4z" fill="#000"/><path fill-rule="evenodd" clip-rule="evenodd" d="M30.346 2.638c-3.632 0-6.596 2.925-6.596 6.557 0 3.633 2.964 6.558 6.596 6.558v-3c-1.997 0-3.596-1.604-3.596-3.558 0-1.954 1.599-3.557 3.596-3.557v-3z" fill="#F1F5F8"/><path d="M30.346 2.638h.2v-.2h-.2v.2zm0 13.115v.2h.2v-.2h-.2zm0-3h.2v-.2h-.2v.2zm0-7.115v.2h.2v-.2h-.2zm0-2.8v-.4.4zM23.95 9.195c0-3.52 2.873-6.357 6.396-6.357v-.4c-3.741 0-6.796 3.013-6.796 6.757h.4zm6.396 6.358c-3.523 0-6.396-2.837-6.396-6.358h-.4c0 3.745 3.055 6.758 6.796 6.758v-.4zm0 0v.4-.4zm.2.2v-3h-.4v3h.4zm-.2-2.8v-.4.4zM26.55 9.195c0 2.066 1.69 3.758 3.796 3.758v-.4c-1.888 0-3.396-1.516-3.396-3.358h-.4zm3.796-3.757c-2.106 0-3.796 1.692-3.796 3.757h.4c0-1.842 1.508-3.357 3.396-3.357v-.4zm0 0v.4-.4zm.2.2v-3h-.4v3h.4z" fill="#000"/><path fill-rule="evenodd" clip-rule="evenodd" d="M9.266 24.017c-3.632 0-6.596 2.925-6.596 6.558 0 3.632 2.964 6.557 6.596 6.557v-3c-1.997 0-3.596-1.603-3.596-3.557s1.599-3.558 3.596-3.558v-3z" fill="#F1F5F8"/><path d="M9.266 24.017h.2v-.2h-.2v.2zm0 13.115v.2h.2v-.2h-.2zm0-3h.2v-.2h-.2v.2zm0-7.115v.2h.2v-.2h-.2zm0-2.8v-.4.4zM2.87 30.575c0-3.52 2.873-6.358 6.396-6.358v-.4c-3.741 0-6.796 3.013-6.796 6.758h.4zm6.396 6.357c-3.523 0-6.396-2.837-6.396-6.357h-.4c0 3.744 3.055 6.757 6.796 6.757v-.4zm0 0v.4-.4zm.2.2v-3h-.4v3h.4zm-.2-2.8v-.4.4zM5.47 30.575c0 2.066 1.69 3.757 3.796 3.757v-.4c-1.888 0-3.396-1.515-3.396-3.357h-.4zm3.796-3.758c-2.106 0-3.796 1.692-3.796 3.758h.4c0-1.842 1.508-3.358 3.396-3.358v-.4zm0 0v.4-.4zm.2.2v-3h-.4v3h.4z" fill="#000"/><defs><linearGradient id="paint0_linear_0_501" x1="30.711" y1="21.563" x2="30.711" y2="40" gradientUnits="userSpaceOnUse"><stop stop-color="#4614E8"/><stop offset="1" stop-color="#BCA7FF"/></linearGradient></defs></svg>