<svg width="44" height="42" fill="none" xmlns="http://www.w3.org/2000/svg"><mask id="a" fill="#fff"><path d="M40 22c0 11.046-8.954 20-20 20S0 33.046 0 22 8.954 2 20 2s20 8.954 20 20z"/></mask><path d="M40 22c0 11.046-8.954 20-20 20S0 33.046 0 22 8.954 2 20 2s20 8.954 20 20z" fill="#F4F7FA"/><path d="M39.6 22c0 10.825-8.775 19.6-19.6 19.6v.8c11.267 0 20.4-9.133 20.4-20.4h-.8zM20 41.6C9.175 41.6.4 32.825.4 22h-.8c0 11.267 9.133 20.4 20.4 20.4v-.8zM.4 22C.4 11.175 9.175 2.4 20 2.4v-.8C8.733 1.6-.4 10.733-.4 22h.8zM20 2.4c10.825 0 19.6 8.775 19.6 19.6h.8c0-11.267-9.133-20.4-20.4-20.4v.8z" fill="#000" mask="url(#a)"/><g clip-path="url(#clip0_10830_91)" fill="#F4F7FA" stroke="#000" stroke-width=".4"><path d="M25.2 24.715h0c.407.305.49.882.184 1.288h-.001a.912.912 0 01-.737.37.914.914 0 01-.552-.185h0l-4.482-3.362h0a.918.918 0 01-.368-.736v-6.724a.92.92 0 111.84 0v6.263l.08.06 4.035 3.026z"/><path d="M5.896 22c0-7.868 6.4-14.268 14.268-14.268S34.432 14.132 34.432 22s-6.4 14.268-14.268 14.268S5.896 29.868 5.896 22zm1.842 0c0 6.851 5.575 12.427 12.426 12.427 6.852 0 12.427-5.576 12.427-12.427S27.017 9.573 20.164 9.573C13.313 9.573 7.738 15.15 7.738 22z"/></g><mask id="b" fill="#fff"><path fill-rule="evenodd" clip-rule="evenodd" d="M26.775.302c5.224 1.322 9.142 6.834 9.142 13.432 0 6.598-3.918 12.109-9.142 13.432.928.197 1.89.301 2.877.301 7.585 0 13.734-6.148 13.734-13.733C43.386 6.149 37.237 0 29.652 0c-.987 0-1.95.104-2.877.302z"/></mask><path fill-rule="evenodd" clip-rule="evenodd" d="M26.775.302c5.224 1.322 9.142 6.834 9.142 13.432 0 6.598-3.918 12.109-9.142 13.432.928.197 1.89.301 2.877.301 7.585 0 13.734-6.148 13.734-13.733C43.386 6.149 37.237 0 29.652 0c-.987 0-1.95.104-2.877.302z" fill="#7247FF"/><path fill-rule="evenodd" clip-rule="evenodd" d="M26.775.302c5.224 1.322 9.142 6.834 9.142 13.432 0 6.598-3.918 12.109-9.142 13.432.928.197 1.89.301 2.877.301 7.585 0 13.734-6.148 13.734-13.733C43.386 6.149 37.237 0 29.652 0c-.987 0-1.95.104-2.877.302z" fill="url(#paint0_linear_10830_91)"/><path d="M26.775.302l-.063-.293-.01.584.073-.291zm0 26.864l-.074-.291.011.584.063-.293zM26.7.593c5.064 1.282 8.916 6.65 8.916 13.14h.6c0-6.704-3.984-12.359-9.369-13.722L26.7.593zm8.916 13.14c0 6.492-3.852 11.86-8.916 13.142l.147.581c5.385-1.363 9.369-7.017 9.369-13.722h-.6zm-5.965 13.434c-.966 0-1.907-.102-2.815-.295l-.125.587c.949.202 1.932.308 2.94.308v-.6zm13.434-13.433c0 7.419-6.014 13.433-13.434 13.433v.6c7.75 0 14.034-6.283 14.034-14.033h-.6zM29.652.3c7.42 0 13.434 6.014 13.434 13.434h.6C43.686 5.984 37.403-.3 29.652-.3v.6zm-2.815.295A13.49 13.49 0 0129.652.3v-.6c-1.008 0-1.992.106-2.94.309l.125.586z" fill="#000" mask="url(#b)"/><defs><linearGradient id="paint0_linear_10830_91" x1="35.08" y1="27.467" x2="35.08" y2="0" gradientUnits="userSpaceOnUse"><stop stop-color="#4614E8"/><stop offset="1" stop-color="#BCA7FF"/></linearGradient><clipPath id="clip0_10830_91"><path fill="#fff" d="M5.696 7.532h28.936v28.936H5.696z"/></clipPath></defs></svg>