<svg width="145" height="145" fill="none" xmlns="http://www.w3.org/2000/svg"><path d="M70.745 129.745c30.928 0 56-25.072 56-56s-25.072-56-56-56c-11.914 0-22.958 3.72-32.036 10.063-7.988 4.146-23.964 19.138-23.964 45.938 0 30.927 25.072 55.999 56 55.999z" fill="#F4F7FA"/><path d="M0 72.5C0 112.32 32.679 145 72.5 145S145 112.321 145 72.5C145 35.594 116.931 4.823 81.121.515 76.385-.055 72.5 3.867 72.5 8.638c0 4.77 3.892 8.566 8.605 9.307 26.378 4.144 46.62 27.031 46.62 54.555 0 30.45-24.775 55.224-55.225 55.224-30.45 0-55.225-24.774-55.225-55.224a54.891 54.891 0 018.113-28.787c2.502-4.08 2.099-9.534-1.584-12.593-3.618-3.003-9.027-2.562-11.638 1.348C4.488 43.965 0 57.742 0 72.5z" fill="url(#paint0_linear_0_485)"/><path d="M42.517 90.89c-.936 0-1.716-.317-2.34-.948-.624-.64-.936-1.416-.936-2.328v-.025c0-.912.312-1.692.936-2.34.632-.647 1.416-.971 2.352-.971 1.024 0 1.868.363 2.532 1.091l-.9.972c-.504-.527-1.052-.791-1.644-.791-.52 0-.956.196-1.308.588-.344.391-.516.867-.516 1.427v.025c0 .575.176 1.06.528 1.451.36.392.816.588 1.368.588.584 0 1.132-.264 1.644-.791l.876.864c-.344.383-.72.68-1.128.888-.4.2-.888.3-1.464.3zm7.466-.144v-6.337h1.44v3.036l2.76-3.035h1.704l-2.46 2.663 2.664 3.673h-1.716l-1.92-2.617-1.032 1.093v1.524h-1.44zm12.43 0h-1.44v-.78c-.512.608-1.196.912-2.052.912-.632 0-1.168-.172-1.608-.516-.432-.352-.648-.84-.648-1.465 0-.68.236-1.196.708-1.547.472-.352 1.092-.528 1.86-.528.616 0 1.2.087 1.752.263v-.12c0-.44-.136-.776-.408-1.008-.264-.231-.648-.347-1.152-.347-.576 0-1.18.132-1.812.395l-.396-1.163a5.832 5.832 0 012.412-.528c.92 0 1.612.232 2.076.696.472.463.708 1.123.708 1.98v3.756zm-1.404-2.292v-.36a3.978 3.978 0 00-1.452-.252c-.456 0-.812.088-1.068.264a.851.851 0 00-.384.744.8.8 0 00.348.684c.232.167.524.251.876.251.488 0 .888-.123 1.2-.371.32-.249.48-.569.48-.96zm2.327 2.292l2.484-3.672-2.388-2.665h1.692l2.627 3.108V84.41h1.453v3.108l2.64-3.108h1.692l-2.389 2.664 2.472 3.673h-1.632l-1.811-2.7-.972 1.103v1.597H67.75V89.15l-.972-1.105-1.811 2.7h-1.633zm10.572 1.523v-2.772h.683c.473-.944.709-2.38.709-4.308v-.78h4.907v5.088h.9l-.192 2.772h-1.212v-1.523h-4.44l-.144 1.523h-1.212zm2.171-2.772h2.677v-3.84h-2.088v.84c0 1.177-.197 2.177-.589 3zm9.248 1.392c-.96 0-1.76-.32-2.4-.96-.64-.64-.96-1.42-.96-2.34 0-.92.324-1.7.972-2.34.648-.647 1.452-.971 2.412-.971s1.76.32 2.4.96c.648.64.972 1.424.972 2.352a3.19 3.19 0 01-.972 2.34c-.648.64-1.456.96-2.424.96zm.024-1.26c.576 0 1.04-.196 1.392-.588.352-.391.528-.876.528-1.451 0-.569-.184-1.049-.552-1.44a1.81 1.81 0 00-1.392-.6c-.568 0-1.028.196-1.38.588-.352.391-.528.875-.528 1.451 0 .56.184 1.04.552 1.44.368.4.828.6 1.38.6zm4.851 1.117v-6.337h4.488v1.248h-3.036v5.089h-1.452zm8.649.144c-.96 0-1.76-.32-2.4-.96-.64-.64-.96-1.42-.96-2.34 0-.92.324-1.7.972-2.34.648-.648 1.452-.972 2.412-.972s1.76.32 2.4.96c.648.64.972 1.424.972 2.352a3.19 3.19 0 01-.972 2.34c-.648.64-1.456.96-2.424.96zm.024-1.26c.576 0 1.04-.197 1.392-.588.352-.392.528-.877.528-1.453 0-.567-.184-1.047-.552-1.44a1.81 1.81 0 00-1.392-.6c-.568 0-1.028.197-1.38.588-.352.392-.528.876-.528 1.453 0 .56.184 1.04.552 1.44.368.4.828.6 1.38.6zm-49.36 15.115v-6.336h5.651v6.336h-1.451v-5.088h-2.748v5.088h-1.453zm10.488.144c-.96 0-1.76-.32-2.4-.96-.64-.64-.96-1.42-.96-2.34 0-.92.324-1.7.972-2.34.648-.647 1.452-.971 2.412-.971s1.76.32 2.4.96c.648.64.972 1.423.972 2.351a3.19 3.19 0 01-.972 2.34c-.648.64-1.456.96-2.424.96zm.024-1.26c.576 0 1.04-.196 1.392-.588.352-.392.528-.876.528-1.452 0-.568-.184-1.048-.552-1.44a1.81 1.81 0 00-1.392-.6c-.568 0-1.028.197-1.38.588-.352.392-.528.876-.528 1.452 0 .56.184 1.04.552 1.44.368.4.828.6 1.38.6zm4.803 1.188c-.232 0-.516-.028-.852-.084l.108-1.188c.128.032.268.048.42.048a.981.981 0 00.408-.072c.112-.048.224-.168.336-.36.12-.2.212-.48.276-.84.064-.36.116-.864.156-1.512.04-.656.06-1.456.06-2.4h4.788v6.336h-1.452v-5.088h-1.98a20.8 20.8 0 01-.108 2.304c-.072.632-.168 1.132-.288 1.5-.112.368-.272.656-.48.864-.2.2-.404.332-.612.396a2.693 2.693 0 01-.78.096zm7.524-.072v-6.336h1.416v4.248a998.78 998.78 0 013-4.248h1.368v6.336h-1.404v-4.224l-3.012 4.224h-1.368zm10.534.144c-.936 0-1.716-.316-2.34-.948-.624-.64-.936-1.416-.936-2.328v-.024c0-.912.312-1.692.936-2.34.632-.647 1.416-.971 2.352-.971 1.024 0 1.868.363 2.532 1.091l-.9.972c-.504-.527-1.052-.791-1.644-.791-.52 0-.956.196-1.308.587-.344.392-.516.868-.516 1.428v.024c0 .576.176 1.06.528 1.452.36.392.816.588 1.368.588.584 0 1.132-.264 1.644-.792l.876.864c-.344.384-.72.68-1.128.888-.4.2-.888.3-1.464.3zm9.185-.144h-1.44v-.78c-.512.608-1.196.912-2.052.912-.632 0-1.168-.172-1.608-.516-.432-.352-.648-.84-.648-1.464 0-.68.236-1.196.708-1.548.472-.352 1.092-.528 1.86-.528.616 0 1.2.088 1.752.264v-.12c0-.44-.136-.776-.408-1.008-.264-.231-.648-.347-1.152-.347-.576 0-1.18.132-1.812.395l-.396-1.163a5.832 5.832 0 012.412-.528c.92 0 1.612.232 2.076.696.472.463.708 1.123.708 1.979v3.756zm-1.404-2.292v-.36a3.978 3.978 0 00-1.452-.252c-.456 0-.812.088-1.068.264a.851.851 0 00-.384.744.8.8 0 00.348.684c.232.168.524.252.876.252.488 0 .888-.124 1.2-.372.32-.248.48-.568.48-.96zM37.297 71.665h2.928V67.25h-2.288v.193c-.021 1.845-.234 3.253-.64 4.224zm4.192 2.08h-5.376l-.176 2.016H33.89v-4.096h.928c.555-1.184.832-3.104.832-5.76v-.736h7.008v6.496h1.168l-.288 4.096H41.49v-2.015zm11.177-1.104c-.886.864-1.99 1.296-3.312 1.296-1.323 0-2.427-.426-3.312-1.28-.875-.864-1.312-1.925-1.312-3.183 0-1.249.442-2.305 1.328-3.169.896-.864 2.005-1.296 3.328-1.296 1.322 0 2.421.433 3.296 1.296.885.854 1.328 1.91 1.328 3.168 0 1.249-.448 2.305-1.344 3.168zm-3.28-.8c.672 0 1.21-.223 1.616-.671.405-.46.608-1.025.608-1.697 0-.65-.214-1.205-.64-1.663-.416-.47-.955-.704-1.616-.704-.672 0-1.211.229-1.616.688-.406.448-.608 1.008-.608 1.68 0 .65.208 1.21.624 1.68.426.458.97.688 1.632.688zm14.573 3.473v-1.616c-1.418-.182-2.677-.688-3.776-1.52l1.248-1.825c.918.694 1.787 1.126 2.609 1.297v-2.544c-1.195-.32-2.07-.736-2.625-1.248-.544-.523-.816-1.249-.816-2.177 0-.874.305-1.589.913-2.143.608-.555 1.423-.886 2.447-.992v-.928h1.665v.96a6.683 6.683 0 012.976 1.183l-1.072 1.872c-.683-.458-1.345-.773-1.985-.944v2.417c1.227.33 2.112.768 2.656 1.312.544.533.817 1.253.817 2.16 0 .874-.31 1.589-.928 2.144-.608.554-1.43.89-2.464 1.008v1.584H63.96zm.08-8.608v-2.16c-.736.095-1.104.437-1.104 1.023 0 .257.075.475.224.656.16.171.454.331.88.48zm1.504 5.023c.758-.117 1.136-.469 1.136-1.055 0-.278-.085-.502-.255-.673-.16-.18-.454-.352-.88-.511v2.24zm5.064 2.017v-1.953l3.728-3.056c.736-.608 1.243-1.093 1.52-1.456a2.02 2.02 0 00.416-1.232c0-.458-.138-.816-.416-1.072-.277-.255-.64-.383-1.088-.383a1.96 1.96 0 00-1.136.352c-.33.224-.714.608-1.152 1.151l-1.728-1.391c.587-.8 1.19-1.387 1.808-1.76.63-.374 1.419-.56 2.368-.56 1.163 0 2.096.32 2.8.96.704.629 1.056 1.471 1.056 2.528a3.77 3.77 0 01-.352 1.648 4.74 4.74 0 01-.912 1.28c-.373.362-.933.831-1.68 1.407l-1.824 1.409h4.88v2.128h-8.288zm14.609.192c-1.355 0-2.432-.4-3.232-1.2-.885-.886-1.328-2.31-1.328-4.272 0-1.814.416-3.286 1.248-4.416.832-1.131 2.053-1.697 3.664-1.697 1.301 0 2.47.411 3.504 1.233l-1.296 1.904c-.405-.31-.779-.534-1.12-.672-.33-.15-.72-.224-1.168-.224-.661 0-1.184.24-1.568.72-.373.469-.603 1.093-.688 1.872.725-.48 1.499-.72 2.32-.72 1.152 0 2.096.314 2.832.944.736.629 1.104 1.514 1.104 2.656 0 1.13-.405 2.058-1.216 2.784-.81.725-1.83 1.088-3.056 1.088zm-1.52-2.576c.352.309.827.464 1.424.464s1.067-.155 1.408-.464c.341-.31.512-.715.512-1.216 0-.48-.176-.87-.528-1.168-.352-.31-.827-.465-1.424-.465s-1.067.15-1.408.448c-.341.3-.512.7-.512 1.2 0 .48.176.88.528 1.2zm16.114.928c-.928 1.098-2.128 1.647-3.6 1.647s-2.667-.549-3.584-1.647c-.918-1.1-1.376-2.48-1.376-4.145 0-1.653.464-3.029 1.392-4.127.928-1.11 2.128-1.665 3.6-1.665 1.461 0 2.65.55 3.568 1.648.928 1.1 1.392 2.48 1.392 4.144 0 1.654-.464 3.035-1.392 4.145zm-5.36-1.585c.458.672 1.056 1.008 1.792 1.008s1.322-.33 1.76-.991c.448-.672.672-1.531.672-2.576 0-1.025-.23-1.873-.688-2.544-.459-.683-1.05-1.025-1.776-1.025s-1.312.337-1.76 1.008c-.448.662-.672 1.515-.672 2.56 0 1.035.224 1.889.672 2.56zM47.602 57.79V53.8h.924c.383-.887.658-1.825.826-2.814.168-.99.252-2.287.252-3.892v-1.148h7.126V53.8h1.176l-.28 3.99H55.82v-2.044h-6.132l-.14 2.043h-1.946zm6.972-9.898h-2.898v.993c0 1.849-.294 3.486-.882 4.915h3.78v-5.908zm11.193 6.887c-.774.756-1.74 1.134-2.898 1.134-1.157 0-2.123-.373-2.898-1.12-.765-.755-1.148-1.684-1.148-2.785 0-1.093.388-2.017 1.162-2.773.784-.755 1.755-1.133 2.912-1.133 1.158 0 2.119.378 2.884 1.134.775.746 1.162 1.67 1.162 2.772 0 1.091-.392 2.015-1.176 2.771zm-2.87-.7c.588 0 1.06-.196 1.414-.587.355-.402.532-.896.532-1.484a2.06 2.06 0 00-.56-1.457c-.364-.41-.835-.616-1.414-.616-.588 0-1.059.201-1.414.602-.354.392-.532.883-.532 1.47 0 .57.182 1.06.546 1.47.374.402.85.603 1.428.603zm4.957 1.666l2.632-3.807-2.534-3.697h2.282l1.4 2.184 1.414-2.183h2.226l-2.534 3.654 2.646 3.85h-2.282l-1.512-2.339-1.512 2.339h-2.226zm15.386-.965c-.775.755-1.74 1.133-2.898 1.133-1.157 0-2.123-.373-2.898-1.12-.765-.755-1.148-1.684-1.148-2.785 0-1.093.387-2.017 1.162-2.773.784-.755 1.755-1.133 2.912-1.133s2.119.378 2.884 1.134c.775.746 1.162 1.67 1.162 2.772 0 1.091-.392 2.015-1.176 2.771zm-2.87-.7c.588 0 1.06-.197 1.414-.588.355-.402.532-.896.532-1.484a2.06 2.06 0 00-.56-1.457c-.364-.41-.835-.616-1.414-.616-.588 0-1.06.201-1.414.602-.355.392-.532.883-.532 1.47 0 .57.182 1.06.546 1.47.373.402.85.603 1.428.603zm7.743-.154h2.562v-3.864h-2.002v.168c-.019 1.614-.206 2.846-.56 3.696zm3.668 1.82h-4.704l-.154 1.764H85.13v-3.584h.812c.485-1.037.728-2.717.728-5.04v-.645h6.132v5.684h1.022l-.252 3.585H91.78v-1.764z" fill="#303030"/><defs><linearGradient id="paint0_linear_0_485" x1="135" y1="26" x2="-19.5" y2="53.5" gradientUnits="userSpaceOnUse"><stop stop-color="#4614E8"/><stop offset="1" stop-color="#BCA7FF"/></linearGradient></defs></svg>