<?xml version="1.0" encoding="utf-8"?><svg viewBox="0 0 1021 364" xmlns="http://www.w3.org/2000/svg" xmlns:xlink="http://www.w3.org/1999/xlink"><style>:root>svg{display:none}:root>svg:target{display:block}</style><svg fill="none" viewBox="0 0 58 58" id="advantage-1" xmlns="http://www.w3.org/2000/svg"><g clip-path="url(#aa)"><path d="M38.557 18.593a19.08 19.08 0 0 1 19.44 18.763 19.236 19.236 0 0 1-.446 4.52c-.542 2.458-.865 4.959-.865 7.476v4.865a1.35 1.35 0 0 1-1.35 1.35h-4.864c-2.517 0-5.019.322-7.476.864a19.25 19.25 0 0 1-4.52.446 19.08 19.08 0 0 1-18.763-19.439c.157-10.337 8.507-18.687 18.844-18.845z" fill="url(#ab)" fill-opacity=".5"/><path d="m21.212 37.46 36.339 4.416-1.465-.323c-.561 2.544-.9 5.155-.9 7.799v4.715h-4.714c-2.645 0-5.256.338-7.8.9a17.733 17.733 0 0 1-4.167.41 17.58 17.58 0 0 1-17.293-17.916z" stroke="#CDBBEF" stroke-opacity=".2" stroke-width="3"/><path d="M23.687 1.122A23.245 23.245 0 0 0 .004 23.982a23.43 23.43 0 0 0 .543 5.505c.66 2.994 1.053 6.042 1.053 9.108v5.927c0 .908.736 1.644 1.645 1.644h5.927c3.066 0 6.113.393 9.107 1.053 1.769.39 3.613.58 5.506.543a23.245 23.245 0 0 0 22.86-23.682C46.451 11.487 36.28 1.315 23.686 1.122z" fill="url(#ac)"/><path d="M12.346 29.278a3.613 3.613 0 1 0 0-7.225 3.613 3.613 0 0 0 0 7.225z" fill="#fff"/><path d="M12.346 29.278a3.613 3.613 0 1 0 0-7.225 3.613 3.613 0 0 0 0 7.225z" fill="url(#ad)"/><path d="M22.563 29.278a3.613 3.613 0 1 0 0-7.225 3.613 3.613 0 0 0 0 7.225z" fill="#fff"/><path d="M22.563 29.278a3.613 3.613 0 1 0 0-7.225 3.613 3.613 0 0 0 0 7.225z" fill="url(#ae)"/><path d="M32.78 29.278a3.613 3.613 0 1 0 0-7.225 3.613 3.613 0 0 0 0 7.225z" fill="#fff"/><path d="M32.78 29.278a3.613 3.613 0 1 0 0-7.225 3.613 3.613 0 0 0 0 7.225z" fill="url(#af)"/></g><defs><linearGradient id="ab" x1="27.969" y1="18.591" x2="58" y2="18.591" gradientUnits="userSpaceOnUse"><stop stop-color="#E1D8FF"/><stop offset="1" stop-color="#F4ECFF"/></linearGradient><linearGradient id="ac" x1="10.061" y1="1.12" x2="46.647" y2="1.12" gradientUnits="userSpaceOnUse"><stop stop-color="#E1D8FF"/><stop offset="1" stop-color="#F4ECFF"/></linearGradient><linearGradient id="ad" x1="12.346" y1="22.053" x2="12.346" y2="29.278" gradientUnits="userSpaceOnUse"><stop stop-color="#4614E8"/><stop offset="1" stop-color="#BCA7FF"/></linearGradient><linearGradient id="ae" x1="22.563" y1="22.053" x2="22.563" y2="29.278" gradientUnits="userSpaceOnUse"><stop stop-color="#4614E8"/><stop offset="1" stop-color="#BCA7FF"/></linearGradient><linearGradient id="af" x1="32.78" y1="22.053" x2="32.78" y2="29.278" gradientUnits="userSpaceOnUse"><stop stop-color="#4614E8"/><stop offset="1" stop-color="#BCA7FF"/></linearGradient><clipPath id="aa"><path fill="#fff" d="M0 0h58v58H0z"/></clipPath></defs></svg><svg fill="none" viewBox="0 0 75 58" id="advantage-2" xmlns="http://www.w3.org/2000/svg"><ellipse opacity=".7" cx="28.427" cy="29" rx="28.427" ry="29" fill="url(#ba)"/><path d="M50.516 29c0 12.49-9.917 22.564-22.088 22.564-12.172 0-22.09-10.074-22.09-22.564s9.918-22.564 22.09-22.564c12.17 0 22.088 10.074 22.088 22.564z" stroke="#CDBBEF" stroke-opacity=".3" stroke-width="3"/><ellipse opacity=".7" cx="46.573" cy="29" rx="28.427" ry="29" fill="url(#bb)"/><path d="M69.266 29c0 12.49-9.917 22.564-22.089 22.564C35.008 51.564 25.09 41.49 25.09 29S35.006 6.436 47.178 6.436c12.17 0 22.088 10.074 22.088 22.564z" stroke="#CDBBEF" stroke-width="3"/><path d="M46.065 40.54v-2.96c-2.981-.316-5.594-1.293-7.84-2.932l2.614-3.94c1.858 1.324 3.658 2.133 5.4 2.43v-3.555c-2.439-.572-4.23-1.342-5.371-2.31-1.123-.967-1.684-2.35-1.684-4.146 0-1.777.61-3.219 1.829-4.324 1.22-1.126 2.922-1.767 5.11-1.925V15.19h3.019v1.776a13.307 13.307 0 0 1 6.126 2.31l-2.38 3.97c-1.143-.83-2.44-1.422-3.891-1.778v3.436c2.4.573 4.151 1.352 5.255 2.34 1.122.987 1.683 2.379 1.683 4.176 0 1.777-.619 3.208-1.858 4.294-1.219 1.086-2.883 1.728-4.993 1.925v2.903h-3.02zm2.903-7.226c1.296-.138 1.945-.661 1.945-1.57 0-.414-.145-.74-.436-.977-.27-.257-.774-.494-1.51-.71v3.257zm-2.7-8.915v-3.198c-1.316.118-1.974.632-1.974 1.54 0 .395.135.72.406.977.29.237.813.464 1.568.681z" fill="url(#bc)"/><defs><linearGradient id="ba" x1="12.263" y1="0" x2="56.855" y2="0" gradientUnits="userSpaceOnUse"><stop stop-color="#E1D8FF"/><stop offset="1" stop-color="#F4ECFF"/></linearGradient><linearGradient id="bb" x1="30.408" y1="0" x2="75" y2="0" gradientUnits="userSpaceOnUse"><stop stop-color="#E1D8FF"/><stop offset="1" stop-color="#F4ECFF"/></linearGradient><linearGradient id="bc" x1="47.081" y1="15.188" x2="47.081" y2="40.541" gradientUnits="userSpaceOnUse"><stop stop-color="#4614E8"/><stop offset="1" stop-color="#BCA7FF"/></linearGradient></defs></svg><svg fill="none" viewBox="0 0 44 62" id="advantage-3" xmlns="http://www.w3.org/2000/svg"><rect width="38.383" height="54.597" rx="5" fill="url(#ca)" fill-opacity=".5"/><path d="M38.968 62H8.777c-2.775 0-5.032-2.262-5.032-5.042V9.67c0-2.781 2.257-5.043 5.032-5.043h30.191C41.743 4.627 44 6.889 44 9.67v47.288C44 59.738 41.743 62 38.968 62z" fill="url(#cb)"/><path d="M35.613 11.35H12.131c-.927 0-1.677.752-1.677 1.681v13.447c0 .93.75 1.68 1.677 1.68h23.482c.928 0 1.678-.75 1.678-1.68V13.031c0-.929-.75-1.68-1.678-1.68zM15.486 31.52H12.13c-.927 0-1.677.752-1.677 1.681 0 .93.75 1.681 1.677 1.681h3.355c.927 0 1.677-.752 1.677-1.68 0-.93-.75-1.681-1.677-1.681zm0 6.724H12.13c-.927 0-1.677.752-1.677 1.68 0 .93.75 1.682 1.677 1.682h3.355c.927 0 1.677-.752 1.677-1.681 0-.93-.75-1.681-1.677-1.681zm6.709 3.362h3.355c.927 0 1.677-.752 1.677-1.681 0-.93-.75-1.681-1.677-1.681h-3.355c-.927 0-1.677.752-1.677 1.68 0 .93.75 1.682 1.677 1.682zm13.418-3.362H32.26c-.927 0-1.678.752-1.678 1.68 0 .93.75 1.682 1.678 1.682h3.354c.928 0 1.678-.752 1.678-1.681 0-.93-.75-1.681-1.678-1.681zm0 6.723H32.26c-.927 0-1.678.752-1.678 1.681 0 .93.75 1.681 1.678 1.681h3.354c.928 0 1.678-.752 1.678-1.68 0-.93-.75-1.682-1.678-1.682zM22.195 48.33h3.355c.927 0 1.677-.752 1.677-1.68 0-.93-.75-1.682-1.677-1.682h-3.355c-.927 0-1.677.752-1.677 1.681 0 .93.75 1.681 1.677 1.681zm-6.71-3.362h-3.354c-.927 0-1.677.752-1.677 1.681 0 .93.75 1.681 1.677 1.681h3.355c.927 0 1.677-.752 1.677-1.68 0-.93-.75-1.682-1.677-1.682zm0 6.724h-3.354c-.927 0-1.677.752-1.677 1.68 0 .93.75 1.681 1.677 1.681h3.355c.927 0 1.677-.751 1.677-1.68 0-.93-.75-1.681-1.677-1.681zm20.128 0H22.195c-.927 0-1.677.752-1.677 1.68 0 .93.75 1.681 1.677 1.681h13.418c.928 0 1.678-.751 1.678-1.68 0-.93-.75-1.681-1.678-1.681zm-13.418-16.81h3.355c.927 0 1.677-.752 1.677-1.68 0-.93-.75-1.681-1.677-1.681h-3.355c-.927 0-1.677.751-1.677 1.68 0 .93.75 1.681 1.677 1.681zm13.418-3.361H32.26c-.927 0-1.678.751-1.678 1.68 0 .93.75 1.681 1.678 1.681h3.354c.928 0 1.678-.752 1.678-1.68 0-.93-.75-1.681-1.678-1.681z" fill="url(#cc)"/><rect x="20.596" y="51.821" width="16.851" height="3.701" rx="1.851" fill="url(#cd)"/><defs><linearGradient id="ca" x1="8.279" y1="0" x2="38.383" y2="0" gradientUnits="userSpaceOnUse"><stop stop-color="#E1D8FF"/><stop offset="1" stop-color="#F4ECFF"/></linearGradient><linearGradient id="cb" x1="12.427" y1="4.627" x2="44" y2="4.627" gradientUnits="userSpaceOnUse"><stop stop-color="#E1D8FF"/><stop offset="1" stop-color="#F4ECFF"/></linearGradient><linearGradient id="cc" x1="23.872" y1="55.053" x2="23.872" y2="11.35" gradientUnits="userSpaceOnUse"><stop stop-color="#BBA6FF"/><stop offset="1" stop-color="#E3D7FA"/></linearGradient><linearGradient id="cd" x1="22" y1="52.746" x2="37.904" y2="55.585" gradientUnits="userSpaceOnUse"><stop stop-color="#4614E8"/><stop offset="1" stop-color="#BCA7FF"/></linearGradient></defs></svg><svg fill="none" viewBox="0 0 41 58" id="advantage-4" xmlns="http://www.w3.org/2000/svg"><rect width="41" height="58" rx="5" fill="url(#da)"/><path transform="matrix(-1 0 0 1 36.967 12)" stroke="url(#db)" stroke-width="3" stroke-linecap="round" d="M1.5-1.5h27.918"/><path transform="matrix(-1 0 0 1 36.967 18)" stroke="url(#dc)" stroke-width="3" stroke-linecap="round" d="M1.5-1.5h27.918"/><path transform="matrix(-1 0 0 1 36.967 24)" stroke="url(#dd)" stroke-width="3" stroke-linecap="round" d="M1.5-1.5h27.918"/><path transform="matrix(-1 0 0 1 36.967 30)" stroke="url(#de)" stroke-width="3" stroke-linecap="round" d="M1.5-1.5h27.918"/><path stroke="url(#df)" stroke-width="3" stroke-linecap="round" d="M16.648 46.833H7.549"/><defs><linearGradient id="da" x1="8.843" y1="0" x2="41" y2="0" gradientUnits="userSpaceOnUse"><stop stop-color="#E1D8FF"/><stop offset="1" stop-color="#F4ECFF"/></linearGradient><linearGradient id="db" x1="2.689" y1="0" x2="27.221" y2="0" gradientUnits="userSpaceOnUse"><stop stop-color="#BBA6FF"/><stop offset="1" stop-color="#CDBBEF"/></linearGradient><linearGradient id="dc" x1="2.689" y1="0" x2="27.221" y2="0" gradientUnits="userSpaceOnUse"><stop stop-color="#BBA6FF"/><stop offset="1" stop-color="#CDBBEF"/></linearGradient><linearGradient id="dd" x1="2.689" y1="0" x2="27.221" y2="0" gradientUnits="userSpaceOnUse"><stop stop-color="#BBA6FF"/><stop offset="1" stop-color="#CDBBEF"/></linearGradient><linearGradient id="de" x1="2.689" y1="0" x2="27.221" y2="0" gradientUnits="userSpaceOnUse"><stop stop-color="#BBA6FF"/><stop offset="1" stop-color="#CDBBEF"/></linearGradient><linearGradient id="df" x1="17.096" y1="45.333" x2="7.496" y2="45.333" gradientUnits="userSpaceOnUse"><stop stop-color="#BBA6FF"/><stop offset="1" stop-color="#CDBBEF"/></linearGradient></defs></svg><svg fill="none" viewBox="0 0 62 62" id="advantage-5" xmlns="http://www.w3.org/2000/svg"><g clip-path="url(#ea)"><path d="m31 0 7.485 9.356v24.576h5.614V13.099C44.099 5.864 38.234 0 31 0z" fill="url(#eb)"/><path d="M31 0c-7.234 0-13.098 5.864-13.098 13.099V25.51c0 .517.418.936.935.936h5.614a.936.936 0 0 0 .936-.936v-1.87a.936.936 0 0 0-.936-.936h-.88c-1.04 0-1.922-.823-1.927-1.862-.002-.52.208-.992.548-1.332l2.92-2.92a.935.935 0 0 0 .275-.662V13.19c0-3.079 2.44-5.654 5.517-5.705a5.614 5.614 0 0 1 5.71 5.613v20.833h3.742V13.099C40.356 5.864 36.167 0 31 0z" fill="url(#ec)"/><path d="M17.278 52.644h27.445v7.485H17.278v-7.485z" fill="#77839D"/><path d="M17.278 52.644h27.445v7.485H17.278v-7.485z" fill="url(#ed)"/><path d="M47.841 30.19H44.1V62h3.742a3.742 3.742 0 0 0 3.743-3.742V33.932a3.742 3.742 0 0 0-3.743-3.743z" fill="url(#ee)"/><path d="M47.841 58.258V33.932a3.742 3.742 0 0 0-3.742-3.743h-29.94a3.742 3.742 0 0 0-3.742 3.743v24.326A3.742 3.742 0 0 0 14.159 62h5.113a.935.935 0 0 0 .779-.417l3.464-5.197h14.97l3.465 5.197c.173.26.465.417.778.417h1.37a3.742 3.742 0 0 0 3.743-3.742z" fill="url(#ef)"/><path d="M29.129 44.725v3.24a1.871 1.871 0 0 0 3.742 0v-3.24H29.13z" fill="#626A7C"/><path d="M29.129 44.725v3.24a1.871 1.871 0 0 0 3.742 0v-3.24H29.13z" fill="url(#eg)"/><path d="M31 36.739a3.742 3.742 0 0 0-3.24 5.613l1.369 2.373c.831 1.44 2.91 1.44 3.742 0l1.37-2.373A3.742 3.742 0 0 0 31 36.738z" fill="url(#eh)"/></g><defs><linearGradient id="eb" x1="33.825" y1="0" x2="44.099" y2="0" gradientUnits="userSpaceOnUse"><stop stop-color="#E1D8FF"/><stop offset="1" stop-color="#F4ECFF"/></linearGradient><linearGradient id="ec" x1="22.745" y1="0" x2="40.356" y2="0" gradientUnits="userSpaceOnUse"><stop stop-color="#E1D8FF"/><stop offset="1" stop-color="#F4ECFF"/></linearGradient><linearGradient id="ed" x1="19.565" y1="54.515" x2="45.751" y2="58.28" gradientUnits="userSpaceOnUse"><stop stop-color="#4614E8"/><stop offset="1" stop-color="#BCA7FF"/></linearGradient><linearGradient id="ee" x1="45.713" y1="30.189" x2="51.584" y2="30.189" gradientUnits="userSpaceOnUse"><stop stop-color="#E1D8FF"/><stop offset="1" stop-color="#F4ECFF"/></linearGradient><linearGradient id="ef" x1="29.129" y1="62" x2="29.129" y2="30.189" gradientUnits="userSpaceOnUse"><stop stop-color="#BBA6FF"/><stop offset="1" stop-color="#E3D7FA"/></linearGradient><linearGradient id="eg" x1="29.441" y1="46.003" x2="33.082" y2="46.107" gradientUnits="userSpaceOnUse"><stop stop-color="#4614E8"/><stop offset="1" stop-color="#BCA7FF"/></linearGradient><linearGradient id="eh" x1="28.732" y1="37.502" x2="36.292" y2="38.99" gradientUnits="userSpaceOnUse"><stop stop-color="#4614E8"/><stop offset="1" stop-color="#BCA7FF"/></linearGradient><clipPath id="ea"><path fill="#fff" d="M0 0h62v62H0z"/></clipPath></defs></svg><svg fill="none" viewBox="0 0 15 16" id="arrow-right" xmlns="http://www.w3.org/2000/svg"><g clip-path="url(#fa)" fill="#2741D0"><path d="M7.379 2.459 8.637.993l5.588 5.603c.77.772.768 2.053-.005 2.827l-5.577 5.585-1.257-1.467 5.527-5.534-5.534-5.548z"/><path d="M0 6.999h12.947v1.999H0v-2z"/></g><defs><clipPath id="fa"><path fill="#fff" transform="matrix(-1 0 0 1 14.801 0)" d="M0 0h14.801v16H0z"/></clipPath></defs></svg><svg fill="none" viewBox="0 0 1021 364" id="baginning-background" xmlns="http://www.w3.org/2000/svg"><path opacity=".5" d="M76.77 55.001C12.8 69.311-46.5 236 59 319c175.716 138.241 476.56-79.306 610-211.586 152.5-139.914 351.5-142.914 351.5 0 0 187.269-257 111.086-257 113.086" stroke="#404040" stroke-dasharray="10 10"/></svg><svg fill="none" viewBox="0 0 55 55" id="beginning-2" xmlns="http://www.w3.org/2000/svg"><g clip-path="url(#ha)"><path d="M50.465 29.642c0 13.867-11.24 25.108-25.107 25.108C11.49 54.75.25 43.509.25 29.642c0-13.866 11.241-25.107 25.108-25.107 13.866 0 25.107 11.24 25.107 25.107z" stroke="#000" stroke-width=".5"/><path d="M43.495 29.642c0 10.017-8.12 18.137-18.137 18.137-10.017 0-18.138-8.12-18.138-18.137 0-10.017 8.12-18.137 18.138-18.137 10.017 0 18.137 8.12 18.137 18.137z" stroke="#000" stroke-width=".5"/><path d="M36.525 29.642c0 6.168-5 11.167-11.167 11.167-6.168 0-11.167-5-11.167-11.166 0-6.168 5-11.167 11.167-11.167s11.167 5 11.167 11.166z" stroke="#000" stroke-width=".5"/><path d="M25.358 34.089a4.447 4.447 0 1 0 0-8.893 4.447 4.447 0 0 0 0 8.893z" fill="url(#hb)"/><path d="m48.865.116-5.563 5.563a1.177 1.177 0 0 0-.342.906l.322 5.133 6.554-6.554L49.535.37a.393.393 0 0 0-.67-.253z" fill="url(#hc)"/><path d="m54.885 6.135-5.563 5.563a1.18 1.18 0 0 1-.907.342l-5.133-.322 6.554-6.554 4.796.301c.337.021.492.43.253.67z" fill="url(#hd)"/><path d="M25.358 30.222a.58.58 0 0 1-.41-.99l27.71-27.71a.58.58 0 0 1 .82.82l-27.71 27.71a.577.577 0 0 1-.41.17z" stroke="#000" stroke-width=".5"/></g><defs><linearGradient id="hb" x1="25.358" y1="25.196" x2="25.358" y2="34.089" gradientUnits="userSpaceOnUse"><stop stop-color="#4614E8"/><stop offset="1" stop-color="#BCA7FF"/></linearGradient><linearGradient id="hc" x1="46.397" y1="0" x2="46.397" y2="11.718" gradientUnits="userSpaceOnUse"><stop stop-color="#4614E8"/><stop offset="1" stop-color="#BCA7FF"/></linearGradient><linearGradient id="hd" x1="49.141" y1="5.164" x2="49.141" y2="12.043" gradientUnits="userSpaceOnUse"><stop stop-color="#4614E8"/><stop offset="1" stop-color="#BCA7FF"/></linearGradient><clipPath id="ha"><path fill="#fff" d="M0 0h55v55H0z"/></clipPath></defs></svg><svg fill="none" viewBox="0 0 527 271" id="circles" xmlns="http://www.w3.org/2000/svg"><circle cx="447.5" cy="79.5" r="79.5" fill="url(#ia)"/><circle cx="19.5" cy="220.5" r="19.5" fill="url(#ib)"/><circle cx="221.5" cy="258.5" r="12.5" fill="url(#ic)"/><defs><linearGradient id="ia" x1="402.294" y1="0" x2="527" y2="0" gradientUnits="userSpaceOnUse"><stop stop-color="#E1D8FF"/><stop offset="1" stop-color="#F4ECFF"/></linearGradient><linearGradient id="ib" x1="8.412" y1="201" x2="39" y2="201" gradientUnits="userSpaceOnUse"><stop stop-color="#E1D8FF"/><stop offset="1" stop-color="#F4ECFF"/></linearGradient><linearGradient id="ic" x1="214.392" y1="246" x2="234" y2="246" gradientUnits="userSpaceOnUse"><stop stop-color="#E1D8FF"/><stop offset="1" stop-color="#F4ECFF"/></linearGradient></defs></svg><svg fill="none" viewBox="0 0 18 18" id="facebook" xmlns="http://www.w3.org/2000/svg"><path d="M12.579 0h-1.875C9.269 0 8.239.34 7.613 1.021c-.626.681-.94 1.684-.94 3.01v1.263c0 .334-.27.604-.604.604h-.648a.604.604 0 0 0-.604.605v1.893c0 .333.27.604.604.604h.648c.334 0 .605.27.605.604v7.791c0 .334.27.605.604.605h2.516c.333 0 .604-.27.604-.605v-7.79c0-.334.27-.605.604-.605h1.271c.334 0 .633-.27.668-.601l.2-1.9a.532.532 0 0 0-.54-.6h-1.599a.604.604 0 0 1-.604-.605v-.947c0-.233.01-.413.033-.54.022-.128.07-.253.147-.377a.6.6 0 0 1 .372-.257 2.65 2.65 0 0 1 .682-.071h.947c.333 0 .604-.27.604-.605V.604A.604.604 0 0 0 12.579 0z" fill="#273895"/></svg><svg fill="none" viewBox="0 0 145 145" id="hero-img-2" xmlns="http://www.w3.org/2000/svg"><path d="M70.745 129.745c30.928 0 56-25.072 56-56s-25.072-56-56-56c-11.914 0-22.958 3.72-32.036 10.063-7.988 4.146-23.964 19.138-23.964 45.938 0 30.927 25.072 55.999 56 55.999z" fill="#F4F7FA"/><path d="M0 72.5C0 112.32 32.679 145 72.5 145S145 112.321 145 72.5C145 35.594 116.931 4.823 81.121.515 76.385-.055 72.5 3.867 72.5 8.638c0 4.77 3.892 8.566 8.605 9.307 26.378 4.144 46.62 27.031 46.62 54.555 0 30.45-24.775 55.224-55.225 55.224-30.45 0-55.225-24.774-55.225-55.224a54.891 54.891 0 0 1 8.113-28.787c2.502-4.08 2.099-9.534-1.584-12.593-3.618-3.003-9.027-2.562-11.638 1.348C4.488 43.965 0 57.742 0 72.5z" fill="url(#ka)"/><path d="M42.517 90.89c-.936 0-1.716-.317-2.34-.948-.624-.64-.936-1.416-.936-2.328v-.025c0-.912.312-1.692.936-2.34.632-.647 1.416-.971 2.352-.971 1.024 0 1.868.363 2.532 1.091l-.9.972c-.504-.527-1.052-.791-1.644-.791-.52 0-.956.196-1.308.588-.344.391-.516.867-.516 1.427v.025c0 .575.176 1.06.528 1.451.36.392.816.588 1.368.588.584 0 1.132-.264 1.644-.791l.876.864c-.344.383-.72.68-1.128.888-.4.2-.888.3-1.464.3zm7.466-.144v-6.337h1.44v3.036l2.76-3.035h1.704l-2.46 2.663 2.664 3.673h-1.716l-1.92-2.617-1.032 1.093v1.524h-1.44zm12.43 0h-1.44v-.78c-.512.608-1.196.912-2.052.912-.632 0-1.168-.172-1.608-.516-.432-.352-.648-.84-.648-1.465 0-.68.236-1.196.708-1.547.472-.352 1.092-.528 1.86-.528.616 0 1.2.087 1.752.263v-.12c0-.44-.136-.776-.408-1.008-.264-.231-.648-.347-1.152-.347-.576 0-1.18.132-1.812.395l-.396-1.163a5.832 5.832 0 0 1 2.412-.528c.92 0 1.612.232 2.076.696.472.463.708 1.123.708 1.98v3.756zm-1.404-2.292v-.36a3.978 3.978 0 0 0-1.452-.252c-.456 0-.812.088-1.068.264a.851.851 0 0 0-.384.744.8.8 0 0 0 .348.684c.232.167.524.251.876.251.488 0 .888-.123 1.2-.371.32-.249.48-.569.48-.96zm2.327 2.292 2.484-3.672-2.388-2.665h1.692l2.627 3.108V84.41h1.453v3.108l2.64-3.108h1.692l-2.389 2.664 2.472 3.673h-1.632l-1.811-2.7-.972 1.103v1.597H67.75V89.15l-.972-1.105-1.811 2.7h-1.633zm10.572 1.523v-2.772h.683c.473-.944.709-2.38.709-4.308v-.78h4.907v5.088h.9l-.192 2.772h-1.212v-1.523h-4.44l-.144 1.523h-1.212zm2.171-2.772h2.677v-3.84h-2.088v.84c0 1.177-.197 2.177-.589 3zm9.248 1.392c-.96 0-1.76-.32-2.4-.96-.64-.64-.96-1.42-.96-2.34 0-.92.324-1.7.972-2.34.648-.647 1.452-.971 2.412-.971s1.76.32 2.4.96c.648.64.972 1.424.972 2.352a3.19 3.19 0 0 1-.972 2.34c-.648.64-1.456.96-2.424.96zm.024-1.26c.576 0 1.04-.196 1.392-.588.352-.391.528-.876.528-1.451 0-.569-.184-1.049-.552-1.44a1.81 1.81 0 0 0-1.392-.6c-.568 0-1.028.196-1.38.588-.352.391-.528.875-.528 1.451 0 .56.184 1.04.552 1.44.368.4.828.6 1.38.6zm4.851 1.117v-6.337h4.488v1.248h-3.036v5.089h-1.452zm8.649.144c-.96 0-1.76-.32-2.4-.96-.64-.64-.96-1.42-.96-2.34 0-.92.324-1.7.972-2.34.648-.648 1.452-.972 2.412-.972s1.76.32 2.4.96c.648.64.972 1.424.972 2.352a3.19 3.19 0 0 1-.972 2.34c-.648.64-1.456.96-2.424.96zm.024-1.26c.576 0 1.04-.197 1.392-.588.352-.392.528-.877.528-1.453 0-.567-.184-1.047-.552-1.44a1.81 1.81 0 0 0-1.392-.6c-.568 0-1.028.197-1.38.588-.352.392-.528.876-.528 1.453 0 .56.184 1.04.552 1.44.368.4.828.6 1.38.6zm-49.36 15.115v-6.336h5.651v6.336h-1.451v-5.088h-2.748v5.088h-1.453zm10.488.144c-.96 0-1.76-.32-2.4-.96-.64-.64-.96-1.42-.96-2.34 0-.92.324-1.7.972-2.34.648-.647 1.452-.971 2.412-.971s1.76.32 2.4.96c.648.64.972 1.423.972 2.351a3.19 3.19 0 0 1-.972 2.34c-.648.64-1.456.96-2.424.96zm.024-1.26c.576 0 1.04-.196 1.392-.588.352-.392.528-.876.528-1.452 0-.568-.184-1.048-.552-1.44a1.81 1.81 0 0 0-1.392-.6c-.568 0-1.028.197-1.38.588-.352.392-.528.876-.528 1.452 0 .56.184 1.04.552 1.44.368.4.828.6 1.38.6zm4.803 1.188c-.232 0-.516-.028-.852-.084l.108-1.188c.128.032.268.048.42.048a.981.981 0 0 0 .408-.072c.112-.048.224-.168.336-.36.12-.2.212-.48.276-.84.064-.36.116-.864.156-1.512.04-.656.06-1.456.06-2.4h4.788v6.336h-1.452v-5.088h-1.98a20.8 20.8 0 0 1-.108 2.304c-.072.632-.168 1.132-.288 1.5-.112.368-.272.656-.48.864-.2.2-.404.332-.612.396a2.693 2.693 0 0 1-.78.096zm7.524-.072v-6.336h1.416v4.248a998.78 998.78 0 0 1 3-4.248h1.368v6.336h-1.404v-4.224l-3.012 4.224h-1.368zm10.534.144c-.936 0-1.716-.316-2.34-.948-.624-.64-.936-1.416-.936-2.328v-.024c0-.912.312-1.692.936-2.34.632-.647 1.416-.971 2.352-.971 1.024 0 1.868.363 2.532 1.091l-.9.972c-.504-.527-1.052-.791-1.644-.791-.52 0-.956.196-1.308.587-.344.392-.516.868-.516 1.428v.024c0 .576.176 1.06.528 1.452.36.392.816.588 1.368.588.584 0 1.132-.264 1.644-.792l.876.864c-.344.384-.72.68-1.128.888-.4.2-.888.3-1.464.3zm9.185-.144h-1.44v-.78c-.512.608-1.196.912-2.052.912-.632 0-1.168-.172-1.608-.516-.432-.352-.648-.84-.648-1.464 0-.68.236-1.196.708-1.548.472-.352 1.092-.528 1.86-.528.616 0 1.2.088 1.752.264v-.12c0-.44-.136-.776-.408-1.008-.264-.231-.648-.347-1.152-.347-.576 0-1.18.132-1.812.395l-.396-1.163a5.832 5.832 0 0 1 2.412-.528c.92 0 1.612.232 2.076.696.472.463.708 1.123.708 1.979v3.756zm-1.404-2.292v-.36a3.978 3.978 0 0 0-1.452-.252c-.456 0-.812.088-1.068.264a.851.851 0 0 0-.384.744.8.8 0 0 0 .348.684c.232.168.524.252.876.252.488 0 .888-.124 1.2-.372.32-.248.48-.568.48-.96zM37.297 71.665h2.928V67.25h-2.288v.193c-.021 1.845-.234 3.253-.64 4.224zm4.192 2.08h-5.376l-.176 2.016H33.89v-4.096h.928c.555-1.184.832-3.104.832-5.76v-.736h7.008v6.496h1.168l-.288 4.096H41.49v-2.015zm11.177-1.104c-.886.864-1.99 1.296-3.312 1.296-1.323 0-2.427-.426-3.312-1.28-.875-.864-1.312-1.925-1.312-3.183 0-1.249.442-2.305 1.328-3.169.896-.864 2.005-1.296 3.328-1.296 1.322 0 2.421.433 3.296 1.296.885.854 1.328 1.91 1.328 3.168 0 1.249-.448 2.305-1.344 3.168zm-3.28-.8c.672 0 1.21-.223 1.616-.671.405-.46.608-1.025.608-1.697 0-.65-.214-1.205-.64-1.663-.416-.47-.955-.704-1.616-.704-.672 0-1.211.229-1.616.688-.406.448-.608 1.008-.608 1.68 0 .65.208 1.21.624 1.68.426.458.97.688 1.632.688zm14.573 3.473v-1.616c-1.418-.182-2.677-.688-3.776-1.52l1.248-1.825c.918.694 1.787 1.126 2.609 1.297v-2.544c-1.195-.32-2.07-.736-2.625-1.248-.544-.523-.816-1.249-.816-2.177 0-.874.305-1.589.913-2.143.608-.555 1.423-.886 2.447-.992v-.928h1.665v.96a6.683 6.683 0 0 1 2.976 1.183l-1.072 1.872c-.683-.458-1.345-.773-1.985-.944v2.417c1.227.33 2.112.768 2.656 1.312.544.533.817 1.253.817 2.16 0 .874-.31 1.589-.928 2.144-.608.554-1.43.89-2.464 1.008v1.584H63.96zm.08-8.608v-2.16c-.736.095-1.104.437-1.104 1.023 0 .257.075.475.224.656.16.171.454.331.88.48zm1.504 5.023c.758-.117 1.136-.469 1.136-1.055 0-.278-.085-.502-.255-.673-.16-.18-.454-.352-.88-.511v2.24zm5.064 2.017v-1.953l3.728-3.056c.736-.608 1.243-1.093 1.52-1.456a2.02 2.02 0 0 0 .416-1.232c0-.458-.138-.816-.416-1.072-.277-.255-.64-.383-1.088-.383a1.96 1.96 0 0 0-1.136.352c-.33.224-.714.608-1.152 1.151l-1.728-1.391c.587-.8 1.19-1.387 1.808-1.76.63-.374 1.419-.56 2.368-.56 1.163 0 2.096.32 2.8.96.704.629 1.056 1.471 1.056 2.528a3.77 3.77 0 0 1-.352 1.648 4.74 4.74 0 0 1-.912 1.28c-.373.362-.933.831-1.68 1.407l-1.824 1.409h4.88v2.128h-8.288zm14.609.192c-1.355 0-2.432-.4-3.232-1.2-.885-.886-1.328-2.31-1.328-4.272 0-1.814.416-3.286 1.248-4.416.832-1.131 2.053-1.697 3.664-1.697 1.301 0 2.47.411 3.504 1.233l-1.296 1.904c-.405-.31-.779-.534-1.12-.672-.33-.15-.72-.224-1.168-.224-.661 0-1.184.24-1.568.72-.373.469-.603 1.093-.688 1.872.725-.48 1.499-.72 2.32-.72 1.152 0 2.096.314 2.832.944.736.629 1.104 1.514 1.104 2.656 0 1.13-.405 2.058-1.216 2.784-.81.725-1.83 1.088-3.056 1.088zm-1.52-2.576c.352.309.827.464 1.424.464s1.067-.155 1.408-.464c.341-.31.512-.715.512-1.216 0-.48-.176-.87-.528-1.168-.352-.31-.827-.465-1.424-.465s-1.067.15-1.408.448c-.341.3-.512.7-.512 1.2 0 .48.176.88.528 1.2zm16.114.928c-.928 1.098-2.128 1.647-3.6 1.647s-2.667-.549-3.584-1.647c-.918-1.1-1.376-2.48-1.376-4.145 0-1.653.464-3.029 1.392-4.127.928-1.11 2.128-1.665 3.6-1.665 1.461 0 2.65.55 3.568 1.648.928 1.1 1.392 2.48 1.392 4.144 0 1.654-.464 3.035-1.392 4.145zm-5.36-1.585c.458.672 1.056 1.008 1.792 1.008s1.322-.33 1.76-.991c.448-.672.672-1.531.672-2.576 0-1.025-.23-1.873-.688-2.544-.459-.683-1.05-1.025-1.776-1.025s-1.312.337-1.76 1.008c-.448.662-.672 1.515-.672 2.56 0 1.035.224 1.889.672 2.56zM47.602 57.79V53.8h.924c.383-.887.658-1.825.826-2.814.168-.99.252-2.287.252-3.892v-1.148h7.126V53.8h1.176l-.28 3.99H55.82v-2.044h-6.132l-.14 2.043h-1.946zm6.972-9.898h-2.898v.993c0 1.849-.294 3.486-.882 4.915h3.78v-5.908zm11.193 6.887c-.774.756-1.74 1.134-2.898 1.134-1.157 0-2.123-.373-2.898-1.12-.765-.755-1.148-1.684-1.148-2.785 0-1.093.388-2.017 1.162-2.773.784-.755 1.755-1.133 2.912-1.133 1.158 0 2.119.378 2.884 1.134.775.746 1.162 1.67 1.162 2.772 0 1.091-.392 2.015-1.176 2.771zm-2.87-.7c.588 0 1.06-.196 1.414-.587.355-.402.532-.896.532-1.484a2.06 2.06 0 0 0-.56-1.457c-.364-.41-.835-.616-1.414-.616-.588 0-1.059.201-1.414.602-.354.392-.532.883-.532 1.47 0 .57.182 1.06.546 1.47.374.402.85.603 1.428.603zm4.957 1.666 2.632-3.807-2.534-3.697h2.282l1.4 2.184 1.414-2.183h2.226l-2.534 3.654 2.646 3.85h-2.282l-1.512-2.339-1.512 2.339h-2.226zm15.386-.965c-.775.755-1.74 1.133-2.898 1.133-1.157 0-2.123-.373-2.898-1.12-.765-.755-1.148-1.684-1.148-2.785 0-1.093.387-2.017 1.162-2.773.784-.755 1.755-1.133 2.912-1.133s2.119.378 2.884 1.134c.775.746 1.162 1.67 1.162 2.772 0 1.091-.392 2.015-1.176 2.771zm-2.87-.7c.588 0 1.06-.197 1.414-.588.355-.402.532-.896.532-1.484a2.06 2.06 0 0 0-.56-1.457c-.364-.41-.835-.616-1.414-.616-.588 0-1.06.201-1.414.602-.355.392-.532.883-.532 1.47 0 .57.182 1.06.546 1.47.373.402.85.603 1.428.603zm7.743-.154h2.562v-3.864h-2.002v.168c-.019 1.614-.206 2.846-.56 3.696zm3.668 1.82h-4.704l-.154 1.764H85.13v-3.584h.812c.485-1.037.728-2.717.728-5.04v-.645h6.132v5.684h1.022l-.252 3.585H91.78v-1.764z" fill="#303030"/><defs><linearGradient id="ka" x1="135" y1="26" x2="-19.5" y2="53.5" gradientUnits="userSpaceOnUse"><stop stop-color="#4614E8"/><stop offset="1" stop-color="#BCA7FF"/></linearGradient></defs></svg><svg fill="none" viewBox="0 0 44 42" id="hero-list-1" xmlns="http://www.w3.org/2000/svg"><mask id="la" fill="#fff"><path d="M40 22c0 11.046-8.954 20-20 20S0 33.046 0 22 8.954 2 20 2s20 8.954 20 20z"/></mask><path d="M40 22c0 11.046-8.954 20-20 20S0 33.046 0 22 8.954 2 20 2s20 8.954 20 20z" fill="#F4F7FA"/><path d="M39.6 22c0 10.825-8.775 19.6-19.6 19.6v.8c11.267 0 20.4-9.133 20.4-20.4h-.8zM20 41.6C9.175 41.6.4 32.825.4 22h-.8c0 11.267 9.133 20.4 20.4 20.4v-.8zM.4 22C.4 11.175 9.175 2.4 20 2.4v-.8C8.733 1.6-.4 10.733-.4 22h.8zM20 2.4c10.825 0 19.6 8.775 19.6 19.6h.8c0-11.267-9.133-20.4-20.4-20.4v.8z" fill="#000" mask="url(#la)"/><g clip-path="url(#lb)" fill="#F4F7FA" stroke="#000" stroke-width=".4"><path d="M25.2 24.715c.407.305.49.882.184 1.288h-.001a.912.912 0 0 1-.737.37.914.914 0 0 1-.552-.185l-4.482-3.362a.918.918 0 0 1-.368-.736v-6.724a.92.92 0 1 1 1.84 0v6.263l.08.06 4.035 3.026z"/><path d="M5.896 22c0-7.868 6.4-14.268 14.268-14.268S34.432 14.132 34.432 22s-6.4 14.268-14.268 14.268S5.896 29.868 5.896 22zm1.842 0c0 6.851 5.575 12.427 12.426 12.427 6.852 0 12.427-5.576 12.427-12.427S27.017 9.573 20.164 9.573C13.313 9.573 7.738 15.15 7.738 22z"/></g><mask id="ld" fill="#fff"><path fill-rule="evenodd" clip-rule="evenodd" d="M26.775.302c5.224 1.322 9.142 6.834 9.142 13.432 0 6.598-3.918 12.109-9.142 13.432.928.197 1.89.301 2.877.301 7.585 0 13.734-6.148 13.734-13.733C43.386 6.149 37.237 0 29.652 0c-.987 0-1.95.104-2.877.302z"/></mask><path fill-rule="evenodd" clip-rule="evenodd" d="M26.775.302c5.224 1.322 9.142 6.834 9.142 13.432 0 6.598-3.918 12.109-9.142 13.432.928.197 1.89.301 2.877.301 7.585 0 13.734-6.148 13.734-13.733C43.386 6.149 37.237 0 29.652 0c-.987 0-1.95.104-2.877.302z" fill="#7247FF"/><path fill-rule="evenodd" clip-rule="evenodd" d="M26.775.302c5.224 1.322 9.142 6.834 9.142 13.432 0 6.598-3.918 12.109-9.142 13.432.928.197 1.89.301 2.877.301 7.585 0 13.734-6.148 13.734-13.733C43.386 6.149 37.237 0 29.652 0c-.987 0-1.95.104-2.877.302z" fill="url(#lc)"/><path d="m26.775.302-.063-.293-.01.584.073-.291zm0 26.864-.074-.291.011.584.063-.293zM26.7.593c5.064 1.282 8.916 6.65 8.916 13.14h.6c0-6.704-3.984-12.359-9.369-13.722L26.7.593zm8.916 13.14c0 6.492-3.852 11.86-8.916 13.142l.147.581c5.385-1.363 9.369-7.017 9.369-13.722h-.6zm-5.965 13.434c-.966 0-1.907-.102-2.815-.295l-.125.587c.949.202 1.932.308 2.94.308v-.6zm13.434-13.433c0 7.419-6.014 13.433-13.434 13.433v.6c7.75 0 14.034-6.283 14.034-14.033h-.6zM29.652.3c7.42 0 13.434 6.014 13.434 13.434h.6C43.686 5.984 37.403-.3 29.652-.3v.6zm-2.815.295A13.49 13.49 0 0 1 29.652.3v-.6c-1.008 0-1.992.106-2.94.309l.125.586z" fill="#000" mask="url(#ld)"/><defs><linearGradient id="lc" x1="35.08" y1="27.467" x2="35.08" y2="0" gradientUnits="userSpaceOnUse"><stop stop-color="#4614E8"/><stop offset="1" stop-color="#BCA7FF"/></linearGradient><clipPath id="lb"><path fill="#fff" d="M5.696 7.532h28.936v28.936H5.696z"/></clipPath></defs></svg><svg fill="none" viewBox="0 0 40 40" id="hero-list-2" xmlns="http://www.w3.org/2000/svg"><path d="M18.379 9.219c0 4.979-4.068 9.018-9.09 9.018C4.268 18.237.2 14.197.2 9.22.2 4.239 4.268.2 9.29.2c5.02 0 9.089 4.04 9.089 9.019zm0 21.563c0 4.979-4.068 9.018-9.09 9.018C4.268 39.8.2 35.76.2 30.782c0-4.98 4.068-9.02 9.09-9.02 5.02 0 9.089 4.04 9.089 9.02zM39.8 9.219c0 4.979-4.068 9.018-9.09 9.018-5.02 0-9.089-4.04-9.089-9.018 0-4.98 4.068-9.019 9.09-9.019C35.732.2 39.8 4.24 39.8 9.219z" fill="#F1F5F8" stroke="#000" stroke-width=".4"/><ellipse cx="30.711" cy="30.782" rx="9.289" ry="9.219" fill="url(#ma)"/><path fill-rule="evenodd" clip-rule="evenodd" d="M9.266 2.638c-3.632 0-6.596 2.925-6.596 6.557 0 3.633 2.964 6.558 6.596 6.558v-3c-1.997 0-3.596-1.604-3.596-3.558 0-1.954 1.599-3.557 3.596-3.557v-3z" fill="#F1F5F8"/><path d="M9.266 2.638h.2v-.2h-.2v.2zm0 13.115v.2h.2v-.2h-.2zm0-3h.2v-.2h-.2v.2zm0-7.115v.2h.2v-.2h-.2zm0-2.8v-.4.4zM2.87 9.195c0-3.52 2.873-6.357 6.396-6.357v-.4c-3.741 0-6.796 3.013-6.796 6.757h.4zm6.396 6.358c-3.523 0-6.396-2.837-6.396-6.358h-.4c0 3.745 3.055 6.758 6.796 6.758v-.4zm0 0v.4-.4zm.2.2v-3h-.4v3h.4zm-.2-2.8v-.4.4zM5.47 9.195c0 2.066 1.69 3.758 3.796 3.758v-.4c-1.888 0-3.396-1.516-3.396-3.358h-.4zm3.796-3.757C7.16 5.438 5.47 7.13 5.47 9.195h.4c0-1.842 1.508-3.357 3.396-3.357v-.4zm0 0v.4-.4zm.2.2v-3h-.4v3h.4z" fill="#000"/><path fill-rule="evenodd" clip-rule="evenodd" d="M30.346 2.638c-3.632 0-6.596 2.925-6.596 6.557 0 3.633 2.964 6.558 6.596 6.558v-3c-1.997 0-3.596-1.604-3.596-3.558 0-1.954 1.599-3.557 3.596-3.557v-3z" fill="#F1F5F8"/><path d="M30.346 2.638h.2v-.2h-.2v.2zm0 13.115v.2h.2v-.2h-.2zm0-3h.2v-.2h-.2v.2zm0-7.115v.2h.2v-.2h-.2zm0-2.8v-.4.4zM23.95 9.195c0-3.52 2.873-6.357 6.396-6.357v-.4c-3.741 0-6.796 3.013-6.796 6.757h.4zm6.396 6.358c-3.523 0-6.396-2.837-6.396-6.358h-.4c0 3.745 3.055 6.758 6.796 6.758v-.4zm0 0v.4-.4zm.2.2v-3h-.4v3h.4zm-.2-2.8v-.4.4zM26.55 9.195c0 2.066 1.69 3.758 3.796 3.758v-.4c-1.888 0-3.396-1.516-3.396-3.358h-.4zm3.796-3.757c-2.106 0-3.796 1.692-3.796 3.757h.4c0-1.842 1.508-3.357 3.396-3.357v-.4zm0 0v.4-.4zm.2.2v-3h-.4v3h.4z" fill="#000"/><path fill-rule="evenodd" clip-rule="evenodd" d="M9.266 24.017c-3.632 0-6.596 2.925-6.596 6.558 0 3.632 2.964 6.557 6.596 6.557v-3c-1.997 0-3.596-1.603-3.596-3.557s1.599-3.558 3.596-3.558v-3z" fill="#F1F5F8"/><path d="M9.266 24.017h.2v-.2h-.2v.2zm0 13.115v.2h.2v-.2h-.2zm0-3h.2v-.2h-.2v.2zm0-7.115v.2h.2v-.2h-.2zm0-2.8v-.4.4zM2.87 30.575c0-3.52 2.873-6.358 6.396-6.358v-.4c-3.741 0-6.796 3.013-6.796 6.758h.4zm6.396 6.357c-3.523 0-6.396-2.837-6.396-6.357h-.4c0 3.744 3.055 6.757 6.796 6.757v-.4zm0 0v.4-.4zm.2.2v-3h-.4v3h.4zm-.2-2.8v-.4.4zM5.47 30.575c0 2.066 1.69 3.757 3.796 3.757v-.4c-1.888 0-3.396-1.515-3.396-3.357h-.4zm3.796-3.758c-2.106 0-3.796 1.692-3.796 3.758h.4c0-1.842 1.508-3.358 3.396-3.358v-.4zm0 0v.4-.4zm.2.2v-3h-.4v3h.4z" fill="#000"/><defs><linearGradient id="ma" x1="30.711" y1="21.563" x2="30.711" y2="40" gradientUnits="userSpaceOnUse"><stop stop-color="#4614E8"/><stop offset="1" stop-color="#BCA7FF"/></linearGradient></defs></svg><svg fill="none" viewBox="0 0 53 40" id="hero-list-3" xmlns="http://www.w3.org/2000/svg"><path d="M39.977 20c0 10.934-8.903 19.8-19.888 19.8C9.104 39.8.2 30.934.2 20 .2 9.066 9.104.2 20.089.2S39.978 9.066 39.978 20z" fill="#F4F7FA" stroke="#000" stroke-width=".4"/><path d="M36.558 20c0 9.054-7.372 16.396-16.47 16.396C10.993 36.396 3.62 29.054 3.62 20c0-9.054 7.373-16.396 16.47-16.396 9.097 0 16.47 7.342 16.47 16.396z" stroke="#000" stroke-opacity=".3" stroke-width=".4"/><path d="M52.8 20c0 10.934-8.904 19.8-19.889 19.8S13.022 30.934 13.022 20C13.022 9.066 21.926.2 32.911.2S52.8 9.066 52.8 20z" fill="#F4F7FA" stroke="#000" stroke-width=".4"/><path d="M49.808 20c0 9.054-7.372 16.396-16.469 16.396-9.097 0-16.47-7.342-16.47-16.396 0-9.054 7.373-16.396 16.47-16.396 9.097 0 16.47 7.342 16.47 16.396z" stroke="#000" stroke-width=".4"/><path d="M32.648 29.471v-2.218c-1.946-.248-3.674-.944-5.182-2.086l1.713-2.503c1.26.952 2.452 1.545 3.58 1.779v-3.491c-1.64-.44-2.84-1.01-3.602-1.713-.746-.717-1.12-1.713-1.12-2.986 0-1.2.418-2.181 1.252-2.943.834-.76 1.954-1.215 3.36-1.361v-1.274h2.283v1.318a9.176 9.176 0 0 1 4.084 1.625l-1.471 2.569c-.937-.63-1.845-1.062-2.723-1.296v3.316c1.684.454 2.899 1.054 3.645 1.8.747.732 1.12 1.72 1.12 2.965 0 1.2-.425 2.18-1.274 2.942-.834.761-1.961 1.222-3.381 1.383v2.174h-2.284zm.11-11.813v-2.964c-1.01.131-1.515.6-1.515 1.405 0 .351.103.651.308.9.22.234.622.454 1.207.659zm2.064 6.895c1.04-.161 1.56-.645 1.56-1.45 0-.38-.118-.688-.352-.922-.22-.249-.622-.483-1.208-.703v3.075z" fill="url(#na)"/><defs><linearGradient id="na" x1="33.339" y1="15.319" x2="33.339" y2="24.681" gradientUnits="userSpaceOnUse"><stop stop-color="#4614E8"/><stop offset="1" stop-color="#BCA7FF"/></linearGradient></defs></svg><svg fill="none" viewBox="0 0 18 18" id="instagram" xmlns="http://www.w3.org/2000/svg"><g clip-path="url(#oa)" fill="#273895"><path d="M13.127 0H4.872A4.878 4.878 0 0 0 0 4.872v8.256A4.878 4.878 0 0 0 4.872 18h8.256A4.878 4.878 0 0 0 18 13.128V4.872A4.878 4.878 0 0 0 13.127 0zM9 13.922A4.927 4.927 0 0 1 4.078 9 4.927 4.927 0 0 1 9 4.078 4.927 4.927 0 0 1 13.922 9 4.927 4.927 0 0 1 9 13.922zm5.04-8.683a1.456 1.456 0 0 1-1.455-1.454c0-.802.652-1.455 1.454-1.455.802 0 1.455.653 1.455 1.455s-.653 1.454-1.455 1.454z"/><path d="M9 5.134A3.87 3.87 0 0 0 5.134 9 3.871 3.871 0 0 0 9 12.867 3.87 3.87 0 0 0 12.867 9 3.87 3.87 0 0 0 9 5.134zm5.04-1.748a.4.4 0 1 0 0 .799.4.4 0 0 0 0-.8z"/></g><defs><clipPath id="oa"><path fill="#fff" d="M0 0h18v18H0z"/></clipPath></defs></svg><svg viewBox="0 0 199 63" id="logo" xmlns="http://www.w3.org/2000/svg"><path d="M31.211 58h16.38v5h-21.36V0h4.98v58zM4.98 0H0v63h4.98V0zm51.466 31.556C56.446 46.11 68.29 58 82.788 58v5C65.41 63 51.355 48.889 51.355 31.556 51.465 14.11 65.522 0 82.898 0v5c-14.61 0-26.452 11.889-26.452 26.556z" fill="#3B1D8F"/><path d="M86.44 31.444c0 2-1.55 3.556-3.542 3.556-1.992 0-3.541-1.556-3.541-3.556s1.549-3.555 3.541-3.555c1.882 0 3.542 1.667 3.542 3.555z" fill="#3B1D8F"/><path d="M111.609 28h-.961V16.625h.961V28zm3.766-8.453.031 1.445c.318-.52.714-.916 1.188-1.187a3.062 3.062 0 0 1 1.57-.414c.906 0 1.581.255 2.024.765.442.51.666 1.276.671 2.297V28h-.929v-5.555c-.006-.755-.167-1.317-.485-1.687-.312-.37-.815-.555-1.507-.555a2.37 2.37 0 0 0-1.54.547c-.442.36-.77.846-.984 1.46V28h-.93v-8.453h.891zm9.359-2.164v2.164h1.75v.765h-1.75v5.633c0 .47.084.818.25 1.047.172.23.456.344.852.344.156 0 .409-.026.758-.078l.039.765c-.245.089-.578.133-1 .133-.641 0-1.107-.185-1.399-.554-.291-.375-.437-.925-.437-1.649v-5.64h-1.555v-.766h1.555v-2.164h.937zm6.961 10.773a3.692 3.692 0 0 1-1.953-.531 3.635 3.635 0 0 1-1.351-1.477c-.323-.635-.485-1.346-.485-2.132v-.336c0-.813.156-1.545.469-2.196.318-.65.758-1.161 1.32-1.53a3.233 3.233 0 0 1 1.828-.563c1.026 0 1.839.351 2.438 1.054.604.698.906 1.654.906 2.867v.524h-6.031v.18c0 .958.273 1.757.82 2.398.552.635 1.245.953 2.078.953.5 0 .94-.091 1.321-.273.385-.183.734-.474 1.047-.875l.586.445c-.688.995-1.685 1.492-2.993 1.492zm-.172-7.968a2.35 2.35 0 0 0-1.781.773c-.479.516-.771 1.208-.875 2.078h5.071v-.102c-.027-.812-.258-1.474-.696-1.984-.437-.51-1.01-.765-1.719-.765zm9.071.156a3.49 3.49 0 0 0-.633-.055c-.583 0-1.078.164-1.484.492-.401.323-.688.795-.86 1.414V28h-.929v-8.453h.914l.015 1.344c.495-1 1.289-1.5 2.383-1.5.26 0 .466.034.617.101l-.023.852zm2.375-.797.031 1.445c.318-.52.714-.916 1.188-1.187a3.06 3.06 0 0 1 1.57-.414c.906 0 1.581.255 2.023.765.443.51.667 1.276.672 2.297V28h-.93v-5.555c-.005-.755-.166-1.317-.484-1.687-.312-.37-.815-.555-1.508-.555a2.37 2.37 0 0 0-1.539.547c-.443.36-.771.846-.984 1.46V28h-.93v-8.453h.891zM156.211 28c-.094-.266-.154-.659-.18-1.18a3.283 3.283 0 0 1-1.258.992 3.847 3.847 0 0 1-1.609.344c-.812 0-1.471-.226-1.976-.68-.5-.453-.75-1.025-.75-1.718 0-.823.341-1.474 1.023-1.953.687-.48 1.643-.72 2.867-.72h1.695v-.96c0-.604-.187-1.078-.562-1.422-.37-.349-.912-.523-1.625-.523-.651 0-1.19.166-1.617.5-.427.333-.641.734-.641 1.203l-.937-.008c0-.672.312-1.253.937-1.742.625-.495 1.393-.742 2.305-.742.943 0 1.685.237 2.226.71.547.47.829 1.126.844 1.97v4c0 .817.086 1.429.258 1.835V28h-1zm-2.938-.672c.625 0 1.183-.15 1.672-.453a2.66 2.66 0 0 0 1.078-1.21v-1.86h-1.671c-.933.01-1.662.182-2.188.515-.526.328-.789.782-.789 1.36 0 .474.174.867.523 1.18.355.312.813.468 1.375.468zm7.633-9.945v2.164h1.75v.765h-1.75v5.633c0 .47.084.818.25 1.047.172.23.456.344.852.344.156 0 .409-.026.758-.078l.039.765c-.245.089-.578.133-1 .133-.641 0-1.107-.185-1.399-.554-.291-.375-.437-.925-.437-1.649v-5.64h-1.555v-.766h1.555v-2.164h.937zM165.641 28h-.938v-8.453h.938V28zm-1.102-10.898c0-.178.057-.326.172-.446a.605.605 0 0 1 .469-.187c.198 0 .354.062.468.187.12.12.18.268.18.446a.615.615 0 0 1-.648.625.619.619 0 0 1-.469-.18.618.618 0 0 1-.172-.445zm3.133 6.546c0-.812.156-1.544.469-2.195a3.606 3.606 0 0 1 1.336-1.515 3.596 3.596 0 0 1 1.961-.547c1.124 0 2.036.396 2.734 1.187.698.787 1.047 1.83 1.047 3.133v.195c0 .818-.159 1.555-.477 2.211-.312.651-.755 1.154-1.328 1.508-.573.354-1.226.531-1.961.531-1.12 0-2.031-.393-2.734-1.18-.698-.791-1.047-1.838-1.047-3.14v-.188zm.937.258c0 1.01.261 1.841.782 2.492.526.646 1.213.97 2.062.97.844 0 1.526-.324 2.047-.97.526-.65.789-1.507.789-2.57v-.18a4.31 4.31 0 0 0-.359-1.773c-.24-.537-.576-.95-1.008-1.242a2.558 2.558 0 0 0-1.484-.445c-.834 0-1.514.328-2.04.984-.526.65-.789 1.505-.789 2.562v.172zm9.438-4.36.031 1.446c.318-.52.714-.916 1.188-1.187a3.062 3.062 0 0 1 1.57-.414c.906 0 1.581.255 2.023.765.443.51.667 1.276.672 2.297V28h-.929v-5.555c-.006-.755-.167-1.317-.485-1.687-.312-.37-.815-.555-1.508-.555a2.37 2.37 0 0 0-1.539.547c-.442.36-.771.846-.984 1.46V28h-.93v-8.453h.891zM191.289 28c-.094-.266-.154-.659-.18-1.18a3.287 3.287 0 0 1-1.257.992 3.855 3.855 0 0 1-1.61.344c-.812 0-1.471-.226-1.976-.68-.5-.453-.75-1.025-.75-1.718 0-.823.341-1.474 1.023-1.953.688-.48 1.643-.72 2.867-.72h1.696v-.96c0-.604-.188-1.078-.563-1.422-.37-.349-.911-.523-1.625-.523-.651 0-1.19.166-1.617.5-.427.333-.641.734-.641 1.203l-.937-.008c0-.672.312-1.253.937-1.742.625-.495 1.393-.742 2.305-.742.943 0 1.685.237 2.227.71.546.47.828 1.126.843 1.97v4c0 .817.086 1.429.258 1.835V28h-1zm-2.937-.672c.625 0 1.182-.15 1.671-.453a2.661 2.661 0 0 0 1.079-1.21v-1.86h-1.672c-.933.01-1.662.182-2.188.515-.526.328-.789.782-.789 1.36 0 .474.175.867.524 1.18.354.312.812.468 1.375.468zm7.226.672h-.937V16h.937v12zm-84.172 18.188h5.617V47h-6.585V35.625h.968v10.563zm10.524.968a3.69 3.69 0 0 1-1.953-.531 3.63 3.63 0 0 1-1.352-1.477c-.323-.635-.484-1.346-.484-2.132v-.336c0-.813.156-1.545.468-2.196.318-.65.758-1.161 1.321-1.53a3.23 3.23 0 0 1 1.828-.563c1.026 0 1.838.351 2.437 1.054.604.698.907 1.654.907 2.867v.524h-6.032v.18c0 .958.274 1.757.821 2.398.552.636 1.244.953 2.078.953.5 0 .94-.091 1.32-.273.385-.183.734-.474 1.047-.875l.586.445c-.688.995-1.685 1.492-2.992 1.492zm-.172-7.968c-.703 0-1.297.257-1.781.773-.48.516-.771 1.208-.875 2.078h5.07v-.102c-.026-.812-.258-1.473-.695-1.984-.438-.51-1.011-.766-1.719-.766zm4.789 3.507c0-1.323.292-2.37.875-3.14.588-.776 1.385-1.164 2.39-1.164 1.152 0 2.027.458 2.626 1.375l.046-1.22h.875v8.282c0 1.089-.304 1.95-.914 2.586-.609.636-1.435.953-2.476.953a3.758 3.758 0 0 1-1.688-.398c-.531-.26-.95-.61-1.258-1.047l.524-.563c.661.813 1.448 1.22 2.359 1.22.782 0 1.391-.233 1.828-.696.438-.459.664-1.097.68-1.914v-1.063c-.599.834-1.471 1.25-2.617 1.25-.979 0-1.766-.39-2.359-1.172-.594-.78-.891-1.836-.891-3.164v-.125zm.945.164c0 1.078.216 1.93.649 2.555.432.62 1.041.93 1.828.93 1.151 0 1.966-.516 2.445-1.547v-3.93c-.219-.541-.534-.953-.945-1.234-.412-.287-.907-.43-1.485-.43-.786 0-1.398.31-1.836.93-.437.614-.656 1.523-.656 2.726zM141.133 47c-.094-.266-.154-.659-.18-1.18a3.283 3.283 0 0 1-1.258.992 3.847 3.847 0 0 1-1.609.344c-.813 0-1.471-.226-1.977-.68-.5-.453-.75-1.026-.75-1.718 0-.823.342-1.474 1.024-1.953.687-.48 1.643-.72 2.867-.72h1.695v-.96c0-.604-.187-1.078-.562-1.422-.37-.349-.912-.523-1.625-.523-.651 0-1.19.166-1.617.5-.427.333-.641.734-.641 1.203l-.938-.008c0-.672.313-1.253.938-1.742.625-.495 1.393-.742 2.305-.742.942 0 1.685.237 2.226.71.547.47.828 1.126.844 1.97v4c0 .817.086 1.429.258 1.835V47h-1zm-2.938-.672c.625 0 1.183-.15 1.672-.453a2.66 2.66 0 0 0 1.078-1.21v-1.86h-1.672c-.932.01-1.661.182-2.187.515-.526.328-.789.782-.789 1.36 0 .474.174.867.523 1.18.354.312.813.468 1.375.468zm7.227.672h-.938V35h.938v12zm14.711-3.547c-.13 1.198-.56 2.115-1.289 2.75-.724.636-1.69.953-2.899.953-.843 0-1.591-.21-2.242-.633-.646-.421-1.146-1.018-1.5-1.789-.354-.776-.534-1.661-.539-2.656v-1.476c0-1.01.177-1.907.531-2.688.354-.781.862-1.383 1.524-1.805.666-.427 1.432-.64 2.297-.64 1.218 0 2.179.33 2.882.992.709.656 1.12 1.565 1.235 2.727h-.969c-.24-1.933-1.289-2.899-3.148-2.899-1.032 0-1.855.386-2.469 1.156-.609.771-.914 1.836-.914 3.196v1.39c0 1.313.297 2.36.89 3.14.599.782 1.407 1.173 2.422 1.173 1.006 0 1.763-.24 2.274-.719.51-.484.825-1.208.945-2.172h.969zm5.39 3.703a3.692 3.692 0 0 1-1.953-.531 3.635 3.635 0 0 1-1.351-1.477c-.323-.635-.485-1.346-.485-2.132v-.336c0-.813.157-1.545.469-2.196.318-.65.758-1.161 1.32-1.53a3.234 3.234 0 0 1 1.829-.563c1.026 0 1.838.351 2.437 1.054.604.698.906 1.654.906 2.867v.524h-6.031v.18c0 .958.274 1.757.82 2.398.552.636 1.245.953 2.078.953.5 0 .941-.091 1.321-.273.385-.183.734-.474 1.047-.875l.586.445c-.688.995-1.685 1.492-2.993 1.492zm-.171-7.968a2.35 2.35 0 0 0-1.782.773c-.479.516-.771 1.208-.875 2.078h5.071v-.102c-.026-.812-.258-1.473-.696-1.984-.437-.51-1.01-.766-1.718-.766zm6.054-.641.032 1.445c.317-.52.713-.916 1.187-1.187a3.062 3.062 0 0 1 1.57-.414c.907 0 1.581.255 2.024.765.442.51.666 1.276.672 2.297V47h-.93v-5.555c-.005-.755-.167-1.317-.484-1.687-.313-.37-.816-.555-1.508-.555a2.37 2.37 0 0 0-1.539.547c-.443.36-.771.846-.985 1.46V47h-.929v-8.453h.89zm9.36-2.164v2.164h1.75v.766h-1.75v5.632c0 .47.083.818.25 1.047.172.23.455.344.851.344.156 0 .409-.026.758-.078l.039.765c-.245.089-.578.133-1 .133-.641 0-1.107-.185-1.398-.554-.292-.375-.438-.925-.438-1.649v-5.64h-1.555v-.766h1.555v-2.164h.938zm6.961 10.773c-.719 0-1.37-.177-1.954-.531a3.635 3.635 0 0 1-1.351-1.477c-.323-.635-.484-1.346-.484-2.132v-.336c0-.813.156-1.545.468-2.196.318-.65.758-1.161 1.321-1.53a3.228 3.228 0 0 1 1.828-.563c1.026 0 1.838.351 2.437 1.054.604.698.906 1.654.906 2.867v.524h-6.031v.18c0 .958.274 1.757.821 2.398.552.636 1.244.953 2.078.953.5 0 .94-.091 1.32-.273.385-.183.734-.474 1.047-.875l.586.445c-.688.995-1.685 1.492-2.992 1.492zm-.172-7.968a2.35 2.35 0 0 0-1.782.773c-.479.516-.77 1.208-.875 2.078h5.071v-.102c-.026-.812-.258-1.473-.696-1.984-.437-.51-1.01-.766-1.718-.766zm9.07.156a3.49 3.49 0 0 0-.633-.055c-.583 0-1.078.164-1.484.492-.401.323-.688.794-.86 1.414V47h-.929v-8.453h.914l.015 1.344c.495-1 1.29-1.5 2.383-1.5.261 0 .466.034.617.101l-.023.852z"/></svg><svg fill="none" viewBox="0 0 82 59" id="logo-mini" xmlns="http://www.w3.org/2000/svg"><path d="M29.33 54.318h15.392V59H24.649V0h4.68v54.318zM4.68 0H0v59h4.68V0zm48.362 29.552c0 13.631 11.129 24.766 24.753 24.766V59c-16.328 0-29.537-13.215-29.537-29.448C48.362 13.215 61.571 0 77.9 0v4.683c-13.728 0-24.857 11.134-24.857 24.869z" fill="#3B1D8F"/><path d="M81.228 29.448c0 1.873-1.457 3.33-3.329 3.33s-3.328-1.457-3.328-3.33 1.456-3.33 3.328-3.33c1.768 0 3.329 1.561 3.329 3.33z" fill="#3B1D8F"/></svg><svg fill="none" viewBox="0 0 13 22" id="phone-img" xmlns="http://www.w3.org/2000/svg"><g fill-rule="evenodd" clip-rule="evenodd" fill="#fff" clip-path="url(#ra)"><path d="M.18 3.667a2.52 2.52 0 0 1 2.522-2.521h7.333a2.52 2.52 0 0 1 2.52 2.52v14.667a2.52 2.52 0 0 1-2.52 2.521H2.702a2.52 2.52 0 0 1-2.521-2.52V3.666zM2.703 2.52c-.633 0-1.146.513-1.146 1.146v14.666c0 .633.513 1.146 1.146 1.146h7.333c.633 0 1.146-.513 1.146-1.146V3.667c0-.633-.513-1.146-1.146-1.146H2.702z"/><path d="M3.618 1.146a.688.688 0 0 0-.687.687v.917c0 .886.718 1.604 1.604 1.604h3.667c.886 0 1.604-.718 1.604-1.604v-.917a.688.688 0 0 0-.688-.687h-5.5z"/></g><defs><clipPath id="ra"><path fill="#fff" d="M0 0h12.737v22H0z"/></clipPath></defs></svg><svg fill="none" viewBox="0 0 10 10" id="triangle" xmlns="http://www.w3.org/2000/svg"><path d="M8.076.41.409 8.075a.577.577 0 0 0 .411.986h7.667c.315 0 .575-.26.575-.575V.82a.577.577 0 0 0-.986-.41z" fill="#2840CD"/></svg><svg fill="none" viewBox="0 0 18 18" id="twitter" xmlns="http://www.w3.org/2000/svg"><g fill="#273895"><path d="M.355 14.696a10.446 10.446 0 0 0 5.608 1.616c2.933 0 5.62-1.126 7.568-3.172a10.292 10.292 0 0 0 2.838-7.256c.706-.605 1.537-1.76 1.537-2.884a.563.563 0 0 0-.847-.485c-.664.39-1.27.492-1.892.317-1.271-1.24-3.163-1.5-4.758-.64-1.393.75-2.168 2.122-2.098 3.622a9.32 9.32 0 0 1-6.046-3.302.563.563 0 0 0-.92.075c-.73 1.25-.723 2.7-.087 3.871a.585.585 0 0 0-.49.583c0 1.177.53 2.258 1.383 2.996a.562.562 0 0 0-.144.583 4.038 4.038 0 0 0 2.285 2.448 6.55 6.55 0 0 1-3.567.595c-.588-.08-.878.711-.37 1.033zm5.762-1.435c.42-.324.197-.997-.33-1.008a2.934 2.934 0 0 1-2.305-1.199c.254-.017.518-.056.768-.123.571-.154.544-.978-.036-1.094a2.887 2.887 0 0 1-2.188-1.965c.283.07.571.109.858.114.57.003.785-.727.32-1.032-1.046-.69-1.492-1.907-1.196-3.051a10.458 10.458 0 0 0 6.927 3.092.561.561 0 0 0 .576-.688c-.357-1.544.506-2.626 1.432-3.125.917-.495 2.388-.65 3.516.534.335.353 1.466.367 2.042.233-.258.486-.655.947-1.026 1.206a.562.562 0 0 0-.24.489 9.146 9.146 0 0 1-2.518 6.72c-1.734 1.82-4.132 2.822-6.753 2.822a9.446 9.446 0 0 1-3.03-.496 7.596 7.596 0 0 0 3.183-1.43z"/><path d="M6.117 13.26c.42-.323.197-.996-.33-1.008a2.934 2.934 0 0 1-2.305-1.198c.254-.017.518-.056.768-.123.571-.154.544-.978-.036-1.094a2.887 2.887 0 0 1-2.188-1.965c.283.07.571.109.858.114.57.003.785-.727.32-1.032-1.046-.69-1.492-1.907-1.196-3.051a10.458 10.458 0 0 0 6.927 3.092.561.561 0 0 0 .576-.688c-.357-1.544.506-2.626 1.432-3.125.917-.495 2.388-.65 3.516.534.335.353 1.466.367 2.042.233-.258.486-.655.947-1.026 1.206a.562.562 0 0 0-.24.489 9.146 9.146 0 0 1-2.518 6.72c-1.734 1.82-4.132 2.822-6.753 2.822a9.446 9.446 0 0 1-3.03-.496 7.596 7.596 0 0 0 3.183-1.43z"/></g></svg><svg fill="none" viewBox="0 0 18 18" id="vk" xmlns="http://www.w3.org/2000/svg"><g fill="#273895" clip-path="url(#ua)"><path d="M9.109 14.625c2.604 0 1.675-1.649 1.876-2.123-.003-.354-.006-.694.006-.901.165.046.555.244 1.359 1.025 1.24 1.253 1.558 1.999 2.56 1.999h1.846c.585 0 .89-.242 1.042-.445.147-.197.291-.542.134-1.079-.412-1.293-2.813-3.526-2.963-3.761a2.07 2.07 0 0 1 .078-.131h-.002c.474-.627 2.283-3.337 2.55-4.422v-.006c.145-.495.013-.816-.124-.997-.205-.272-.532-.409-.974-.409h-1.846c-.618 0-1.086.311-1.323.879-.397 1.009-1.512 3.083-2.347 3.818a48.096 48.096 0 0 1 .005-2.425c.027-1.152.114-2.272-1.08-2.272H7.003c-.748 0-1.464.817-.689 1.788.678.85.244 1.324.39 3.684-.57-.611-1.584-2.262-2.301-4.372-.201-.57-.506-1.1-1.363-1.1H1.196C.447 3.376 0 3.785 0 4.468c0 1.535 3.397 10.158 9.109 10.158zM3.04 4.501c.163 0 .18 0 .3.342.734 2.163 2.381 5.362 3.585 5.362.903 0 .903-.926.903-1.275V6.154c-.05-.919-.385-1.377-.604-1.654l2.63.003c.002.013-.014 3.071.008 3.812 0 1.053.836 1.655 2.14.335 1.376-1.553 2.328-3.875 2.366-3.97.056-.134.105-.18.282-.18h1.854l-.002.007c-.169.787-1.835 3.297-2.392 4.076a.633.633 0 0 0-.025.037c-.245.401-.445.844.034 1.466a8.218 8.218 0 0 0 .337.362c.532.549 2.259 2.331 2.413 3.044-.103.017-.216.005-1.96.009-.37 0-.66-.555-1.768-1.673-.996-.969-1.643-1.365-2.232-1.365-1.143 0-1.06.928-1.049 2.05.004 1.216-.004.832.005.908-.067.027-.258.079-.757.079-4.759 0-7.858-7.553-7.977-8.997.041-.004.609-.002 1.91-.002z"/><path d="M3.041 4.5c.163 0 .18 0 .3.343.734 2.163 2.381 5.362 3.585 5.362.903 0 .903-.926.903-1.275V6.154c-.05-.919-.385-1.377-.604-1.654l2.63.003c.002.013-.014 3.071.008 3.812 0 1.053.836 1.655 2.14.335 1.376-1.553 2.328-3.875 2.366-3.97.056-.134.105-.18.282-.18h1.854l-.002.007c-.169.787-1.835 3.297-2.392 4.076a.633.633 0 0 0-.025.037c-.245.401-.445.844.034 1.466.044.053.157.175.322.346l.015.016c.532.549 2.259 2.331 2.413 3.044-.103.017-.216.005-1.96.009-.37 0-.66-.555-1.768-1.673-.996-.969-1.643-1.365-2.232-1.365-1.143 0-1.06.928-1.049 2.05.004 1.216-.004.832.005.908-.067.027-.258.079-.757.079-4.759 0-7.858-7.553-7.977-8.997.041-.004.609-.002 1.91-.002z"/></g><defs><clipPath id="ua"><path fill="#fff" d="M0 0h18v18H0z"/></clipPath></defs></svg></svg>